<svg width="565" height="489" viewBox="0 0 565 489" fill="none" xmlns="http://www.w3.org/2000/svg">
<path d="M341.978 5.48043C285.74 -5.0021 227.146 -0.375357 174.029 18.742C120.911 37.8594 75.8037 70.5561 44.7369 112.46C13.6701 154.364 -1.87492 203.478 0.180355 253.235C2.23563 302.992 21.7933 351.02 56.2381 390.897C90.683 430.774 138.373 460.6 192.932 476.386C247.491 492.171 306.318 493.165 361.547 479.233C416.776 465.302 465.774 437.11 501.99 398.426C538.206 359.742 559.914 312.411 564.211 262.762L379.054 250.759C377.581 267.776 370.141 283.998 357.728 297.257C345.315 310.515 328.522 320.178 309.592 324.953C290.663 329.727 270.501 329.387 251.801 323.977C233.102 318.566 216.757 308.344 204.951 294.676C193.145 281.009 186.442 264.548 185.738 247.494C185.033 230.44 190.361 213.607 201.009 199.245C211.657 184.882 227.117 173.676 245.322 167.124C263.528 160.571 283.611 158.986 302.885 162.578L341.978 5.48043Z" fill="#1B3231"/>
</svg>
