<svg width="232" height="67" viewBox="0 0 232 67" fill="none" xmlns="http://www.w3.org/2000/svg">
<rect width="232" height="67" fill="#1B3231"/>
<path d="M8.844 27.716C8.844 28.208 8.928 28.628 9.096 28.976C9.264 29.324 9.498 29.612 9.798 29.84C10.098 30.056 10.44 30.218 10.824 30.326C11.22 30.422 11.646 30.47 12.102 30.47C12.594 30.47 13.014 30.416 13.362 30.308C13.71 30.188 13.992 30.038 14.208 29.858C14.424 29.678 14.58 29.474 14.676 29.246C14.772 29.006 14.82 28.766 14.82 28.526C14.82 28.034 14.706 27.674 14.478 27.446C14.262 27.206 14.022 27.038 13.758 26.942C13.302 26.774 12.768 26.618 12.156 26.474C11.556 26.318 10.812 26.12 9.924 25.88C9.372 25.736 8.91 25.55 8.538 25.322C8.178 25.082 7.89 24.818 7.674 24.53C7.458 24.242 7.302 23.936 7.206 23.612C7.122 23.288 7.08 22.958 7.08 22.622C7.08 21.974 7.212 21.416 7.476 20.948C7.752 20.468 8.112 20.072 8.556 19.76C9 19.448 9.504 19.22 10.068 19.076C10.632 18.92 11.202 18.842 11.778 18.842C12.45 18.842 13.08 18.932 13.668 19.112C14.268 19.28 14.79 19.538 15.234 19.886C15.69 20.234 16.05 20.666 16.314 21.182C16.578 21.686 16.71 22.274 16.71 22.946H14.46C14.4 22.118 14.118 21.536 13.614 21.2C13.11 20.852 12.468 20.678 11.688 20.678C11.424 20.678 11.154 20.708 10.878 20.768C10.602 20.816 10.35 20.906 10.122 21.038C9.894 21.158 9.702 21.326 9.546 21.542C9.402 21.758 9.33 22.028 9.33 22.352C9.33 22.808 9.468 23.168 9.744 23.432C10.032 23.684 10.404 23.876 10.86 24.008C10.908 24.02 11.094 24.074 11.418 24.17C11.754 24.254 12.126 24.35 12.534 24.458C12.942 24.566 13.338 24.674 13.722 24.782C14.118 24.878 14.4 24.95 14.568 24.998C14.988 25.13 15.354 25.31 15.666 25.538C15.978 25.766 16.236 26.03 16.44 26.33C16.656 26.618 16.812 26.93 16.908 27.266C17.016 27.602 17.07 27.938 17.07 28.274C17.07 28.994 16.92 29.612 16.62 30.128C16.332 30.632 15.948 31.046 15.468 31.37C14.988 31.694 14.442 31.928 13.83 32.072C13.218 32.228 12.594 32.306 11.958 32.306C11.226 32.306 10.536 32.216 9.888 32.036C9.24 31.856 8.676 31.58 8.196 31.208C7.716 30.836 7.332 30.362 7.044 29.786C6.756 29.198 6.606 28.508 6.594 27.716H8.844ZM19.9399 19.148H22.1899V24.998L27.9139 19.148H30.6859L25.5559 24.278L31.0459 32H28.2379L24.0259 25.862L22.1899 27.68V32H19.9399V19.148ZM38.6341 20.678C37.9501 20.678 37.3561 20.816 36.8521 21.092C36.3601 21.368 35.9581 21.74 35.6461 22.208C35.3341 22.664 35.1001 23.186 34.9441 23.774C34.8001 24.362 34.7281 24.962 34.7281 25.574C34.7281 26.186 34.8001 26.786 34.9441 27.374C35.1001 27.962 35.3341 28.49 35.6461 28.958C35.9581 29.414 36.3601 29.78 36.8521 30.056C37.3561 30.332 37.9501 30.47 38.6341 30.47C39.3181 30.47 39.9061 30.332 40.3981 30.056C40.9021 29.78 41.3101 29.414 41.6221 28.958C41.9341 28.49 42.1621 27.962 42.3061 27.374C42.4621 26.786 42.5401 26.186 42.5401 25.574C42.5401 24.962 42.4621 24.362 42.3061 23.774C42.1621 23.186 41.9341 22.664 41.6221 22.208C41.3101 21.74 40.9021 21.368 40.3981 21.092C39.9061 20.816 39.3181 20.678 38.6341 20.678ZM38.6341 18.842C39.5941 18.842 40.4521 19.022 41.2081 19.382C41.9761 19.742 42.6241 20.228 43.1521 20.84C43.6801 21.452 44.0821 22.166 44.3581 22.982C44.6461 23.798 44.7901 24.662 44.7901 25.574C44.7901 26.498 44.6461 27.368 44.3581 28.184C44.0821 29 43.6801 29.714 43.1521 30.326C42.6241 30.938 41.9761 31.424 41.2081 31.784C40.4521 32.132 39.5941 32.306 38.6341 32.306C37.6741 32.306 36.8101 32.132 36.0421 31.784C35.2861 31.424 34.6441 30.938 34.1161 30.326C33.5881 29.714 33.1801 29 32.8921 28.184C32.6161 27.368 32.4781 26.498 32.4781 25.574C32.4781 24.662 32.6161 23.798 32.8921 22.982C33.1801 22.166 33.5881 21.452 34.1161 20.84C34.6441 20.228 35.2861 19.742 36.0421 19.382C36.8101 19.022 37.6741 18.842 38.6341 18.842ZM36.0781 17.672V15.728H38.1301V17.672H36.0781ZM41.2261 15.728V17.672H39.1741V15.728H41.2261ZM47.6479 19.148H50.0239L55.8919 28.616H55.9279V19.148H58.0699V32H55.6939L49.8439 22.55H49.7899V32H47.6479V19.148ZM61.5742 19.148H63.8242V24.26H69.6742V19.148H71.9242V32H69.6742V26.204H63.8242V32H61.5742V19.148ZM75.5184 19.148H84.7704V21.092H77.7684V24.458H84.2484V26.294H77.7684V30.056H84.8964V32H75.5184V19.148ZM86.5323 19.148H96.9363V21.092H92.8503V32H90.6003V21.092H86.5323V19.148ZM110.708 20.678C110.024 20.678 109.43 20.816 108.926 21.092C108.434 21.368 108.032 21.74 107.72 22.208C107.408 22.664 107.174 23.186 107.018 23.774C106.874 24.362 106.802 24.962 106.802 25.574C106.802 26.186 106.874 26.786 107.018 27.374C107.174 27.962 107.408 28.49 107.72 28.958C108.032 29.414 108.434 29.78 108.926 30.056C109.43 30.332 110.024 30.47 110.708 30.47C111.392 30.47 111.98 30.332 112.472 30.056C112.976 29.78 113.384 29.414 113.696 28.958C114.008 28.49 114.236 27.962 114.38 27.374C114.536 26.786 114.614 26.186 114.614 25.574C114.614 24.962 114.536 24.362 114.38 23.774C114.236 23.186 114.008 22.664 113.696 22.208C113.384 21.74 112.976 21.368 112.472 21.092C111.98 20.816 111.392 20.678 110.708 20.678ZM110.708 18.842C111.668 18.842 112.526 19.022 113.282 19.382C114.05 19.742 114.698 20.228 115.226 20.84C115.754 21.452 116.156 22.166 116.432 22.982C116.72 23.798 116.864 24.662 116.864 25.574C116.864 26.498 116.72 27.368 116.432 28.184C116.156 29 115.754 29.714 115.226 30.326C114.698 30.938 114.05 31.424 113.282 31.784C112.526 32.132 111.668 32.306 110.708 32.306C109.748 32.306 108.884 32.132 108.116 31.784C107.36 31.424 106.718 30.938 106.19 30.326C105.662 29.714 105.254 29 104.966 28.184C104.69 27.368 104.552 26.498 104.552 25.574C104.552 24.662 104.69 23.798 104.966 22.982C105.254 22.166 105.662 21.452 106.19 20.84C106.718 20.228 107.36 19.742 108.116 19.382C108.884 19.022 109.748 18.842 110.708 18.842ZM128.488 23.234C128.392 22.862 128.26 22.52 128.092 22.208C127.924 21.896 127.708 21.626 127.444 21.398C127.18 21.17 126.868 20.996 126.508 20.876C126.16 20.744 125.752 20.678 125.284 20.678C124.6 20.678 124.006 20.816 123.502 21.092C123.01 21.368 122.608 21.74 122.296 22.208C121.984 22.664 121.75 23.186 121.594 23.774C121.45 24.362 121.378 24.962 121.378 25.574C121.378 26.186 121.45 26.786 121.594 27.374C121.75 27.962 121.984 28.49 122.296 28.958C122.608 29.414 123.01 29.78 123.502 30.056C124.006 30.332 124.6 30.47 125.284 30.47C125.788 30.47 126.232 30.386 126.616 30.218C127 30.038 127.33 29.798 127.606 29.498C127.882 29.186 128.098 28.826 128.254 28.418C128.41 28.01 128.512 27.572 128.56 27.104H130.756C130.708 27.872 130.54 28.574 130.252 29.21C129.976 29.846 129.598 30.398 129.118 30.866C128.638 31.322 128.074 31.676 127.426 31.928C126.778 32.18 126.064 32.306 125.284 32.306C124.324 32.306 123.46 32.132 122.692 31.784C121.936 31.424 121.294 30.938 120.766 30.326C120.238 29.714 119.83 29 119.542 28.184C119.266 27.368 119.128 26.498 119.128 25.574C119.128 24.662 119.266 23.798 119.542 22.982C119.83 22.166 120.238 21.452 120.766 20.84C121.294 20.228 121.936 19.742 122.692 19.382C123.46 19.022 124.324 18.842 125.284 18.842C126.004 18.842 126.682 18.944 127.318 19.148C127.954 19.34 128.512 19.628 128.992 20.012C129.484 20.384 129.88 20.84 130.18 21.38C130.48 21.92 130.666 22.538 130.738 23.234H128.488ZM133.648 19.148H135.898V24.26H141.748V19.148H143.998V32H141.748V26.204H135.898V32H133.648V19.148ZM153.448 19.148H155.698V24.26H161.548V19.148H163.798V32H161.548V26.204H155.698V32H153.448V19.148ZM170.83 19.148H173.224L178.174 32H175.762L174.556 28.598H169.426L168.22 32H165.898L170.83 19.148ZM170.038 26.888H173.962L172.036 21.362H171.982L170.038 26.888ZM169.444 17.672V15.728H171.496V17.672H169.444ZM174.592 15.728V17.672H172.54V15.728H174.592ZM180.298 19.148H182.548V30.056H189.082V32H180.298V19.148ZM193.01 27.716C193.01 28.208 193.094 28.628 193.262 28.976C193.43 29.324 193.664 29.612 193.964 29.84C194.264 30.056 194.606 30.218 194.99 30.326C195.386 30.422 195.812 30.47 196.268 30.47C196.76 30.47 197.18 30.416 197.528 30.308C197.876 30.188 198.158 30.038 198.374 29.858C198.59 29.678 198.746 29.474 198.842 29.246C198.938 29.006 198.986 28.766 198.986 28.526C198.986 28.034 198.872 27.674 198.644 27.446C198.428 27.206 198.188 27.038 197.924 26.942C197.468 26.774 196.934 26.618 196.322 26.474C195.722 26.318 194.978 26.12 194.09 25.88C193.538 25.736 193.076 25.55 192.704 25.322C192.344 25.082 192.056 24.818 191.84 24.53C191.624 24.242 191.468 23.936 191.372 23.612C191.288 23.288 191.246 22.958 191.246 22.622C191.246 21.974 191.378 21.416 191.642 20.948C191.918 20.468 192.278 20.072 192.722 19.76C193.166 19.448 193.67 19.22 194.234 19.076C194.798 18.92 195.368 18.842 195.944 18.842C196.616 18.842 197.246 18.932 197.834 19.112C198.434 19.28 198.956 19.538 199.4 19.886C199.856 20.234 200.216 20.666 200.48 21.182C200.744 21.686 200.876 22.274 200.876 22.946H198.626C198.566 22.118 198.284 21.536 197.78 21.2C197.276 20.852 196.634 20.678 195.854 20.678C195.59 20.678 195.32 20.708 195.044 20.768C194.768 20.816 194.516 20.906 194.288 21.038C194.06 21.158 193.868 21.326 193.712 21.542C193.568 21.758 193.496 22.028 193.496 22.352C193.496 22.808 193.634 23.168 193.91 23.432C194.198 23.684 194.57 23.876 195.026 24.008C195.074 24.02 195.26 24.074 195.584 24.17C195.92 24.254 196.292 24.35 196.7 24.458C197.108 24.566 197.504 24.674 197.888 24.782C198.284 24.878 198.566 24.95 198.734 24.998C199.154 25.13 199.52 25.31 199.832 25.538C200.144 25.766 200.402 26.03 200.606 26.33C200.822 26.618 200.978 26.93 201.074 27.266C201.182 27.602 201.236 27.938 201.236 28.274C201.236 28.994 201.086 29.612 200.786 30.128C200.498 30.632 200.114 31.046 199.634 31.37C199.154 31.694 198.608 31.928 197.996 32.072C197.384 32.228 196.76 32.306 196.124 32.306C195.392 32.306 194.702 32.216 194.054 32.036C193.406 31.856 192.842 31.58 192.362 31.208C191.882 30.836 191.498 30.362 191.21 29.786C190.922 29.198 190.772 28.508 190.76 27.716H193.01ZM207.544 19.148H209.938L214.888 32H212.476L211.27 28.598H206.14L204.934 32H202.612L207.544 19.148ZM206.752 26.888H210.676L208.75 21.362H208.696L206.752 26.888Z" fill="#FDF3E8"/>
<path d="M148.971 47.165C148.711 47.165 148.452 47.2288 148.192 47.3564C147.932 47.4795 147.697 47.6436 147.488 47.8486C147.283 48.0537 147.114 48.2861 146.982 48.5459C146.85 48.8011 146.784 49.0609 146.784 49.3252C146.784 49.3981 146.79 49.4733 146.804 49.5508C146.818 49.6237 146.845 49.6921 146.886 49.7559C146.932 49.8197 146.996 49.8721 147.078 49.9131C147.16 49.9541 147.269 49.9746 147.406 49.9746C147.67 49.9746 147.925 49.9131 148.171 49.79C148.422 49.6624 148.645 49.4961 148.841 49.291C149.037 49.0859 149.194 48.8558 149.313 48.6006C149.431 48.3408 149.491 48.0811 149.491 47.8213C149.491 47.7529 149.484 47.68 149.47 47.6025C149.461 47.5251 149.438 47.4544 149.402 47.3906C149.365 47.3268 149.313 47.2744 149.245 47.2334C149.176 47.1878 149.085 47.165 148.971 47.165ZM149.545 49.9199C149.158 50.3848 148.746 50.7266 148.308 50.9453C147.875 51.1595 147.406 51.2666 146.9 51.2666C146.622 51.2666 146.387 51.2256 146.196 51.1436C146.004 51.0661 145.849 50.959 145.731 50.8223C145.612 50.6855 145.526 50.526 145.471 50.3438C145.421 50.1615 145.396 49.9678 145.396 49.7627C145.396 49.5303 145.426 49.291 145.485 49.0449C145.544 48.7943 145.621 48.5527 145.717 48.3203C145.781 48.1699 145.833 48.0446 145.874 47.9443C145.915 47.8441 145.95 47.7598 145.977 47.6914C146.004 47.6185 146.027 47.557 146.045 47.5068C146.068 47.4521 146.091 47.3975 146.114 47.3428C146.136 47.2835 146.164 47.2174 146.196 47.1445C146.228 47.0671 146.271 46.9691 146.326 46.8506L148.322 42.4141C148.349 42.3548 148.388 42.2979 148.438 42.2432C148.493 42.1885 148.554 42.1406 148.622 42.0996C148.691 42.054 148.764 42.0199 148.841 41.9971C148.923 41.9697 149.005 41.9561 149.087 41.9561C149.297 41.9561 149.443 41.9971 149.525 42.0791C149.611 42.1611 149.655 42.2614 149.655 42.3799C149.655 42.471 149.632 42.5713 149.586 42.6807C149.541 42.7855 149.491 42.8835 149.436 42.9746C149.099 43.6217 148.78 44.2803 148.479 44.9502C148.178 45.6156 147.859 46.2741 147.522 46.9258C147.668 46.8118 147.823 46.7025 147.987 46.5977C148.151 46.4883 148.322 46.3926 148.499 46.3105C148.677 46.224 148.862 46.1556 149.053 46.1055C149.245 46.0508 149.441 46.0234 149.641 46.0234C149.782 46.0234 149.926 46.0508 150.072 46.1055C150.218 46.1602 150.35 46.2399 150.468 46.3447C150.591 46.4495 150.689 46.5794 150.762 46.7344C150.84 46.8848 150.878 47.0602 150.878 47.2607C150.878 47.3063 150.865 47.3975 150.837 47.5342C150.81 47.6709 150.769 47.8258 150.714 47.999C150.664 48.1676 150.6 48.3431 150.523 48.5254C150.45 48.7031 150.368 48.8604 150.277 48.9971C150.309 49.0472 150.35 49.0791 150.4 49.0928C150.45 49.1019 150.507 49.1064 150.571 49.1064C150.78 49.1064 150.988 49.0791 151.193 49.0244C151.402 48.9697 151.598 48.9036 151.781 48.8262C151.968 48.7441 152.138 48.6598 152.293 48.5732C152.448 48.4867 152.578 48.4115 152.683 48.3477C152.738 48.2884 152.797 48.2588 152.861 48.2588C152.938 48.2588 153.004 48.293 153.059 48.3613C153.118 48.4297 153.148 48.5186 153.148 48.6279C153.148 48.7327 153.125 48.8376 153.079 48.9424C153.038 49.0426 152.961 49.1543 152.847 49.2773C152.642 49.4004 152.435 49.5166 152.225 49.626C152.02 49.7354 151.81 49.8311 151.596 49.9131C151.382 49.9906 151.163 50.0544 150.94 50.1045C150.721 50.1501 150.498 50.1729 150.27 50.1729C150.124 50.1729 149.99 50.1523 149.867 50.1113C149.744 50.0703 149.636 50.0065 149.545 49.9199ZM156.562 46.666C156.689 46.5658 156.796 46.4906 156.883 46.4404C156.974 46.3857 157.052 46.347 157.115 46.3242C157.179 46.2969 157.236 46.2809 157.286 46.2764C157.341 46.2718 157.396 46.2695 157.45 46.2695C157.546 46.2695 157.614 46.306 157.655 46.3789C157.696 46.4473 157.717 46.5202 157.717 46.5977C157.717 46.6615 157.706 46.7207 157.683 46.7754L156.152 49.9678C156.37 49.8037 156.621 49.6442 156.904 49.4893C157.191 49.3298 157.464 49.1885 157.724 49.0654C157.988 48.9378 158.214 48.8353 158.401 48.7578C158.592 48.6803 158.701 48.6416 158.729 48.6416C158.843 48.6416 158.943 48.6849 159.029 48.7715C159.116 48.8581 159.159 48.9674 159.159 49.0996C159.159 49.2181 159.114 49.3434 159.023 49.4756C158.936 49.6077 158.781 49.7354 158.558 49.8584C158.239 50.0361 157.961 50.1888 157.724 50.3164C157.487 50.4395 157.277 50.5511 157.095 50.6514C156.913 50.7516 156.751 50.8428 156.61 50.9248C156.468 51.0068 156.334 51.0911 156.206 51.1777C156.083 51.2643 155.96 51.3555 155.837 51.4512C155.719 51.5514 155.589 51.6676 155.447 51.7998C155.343 52.0732 155.238 52.3353 155.133 52.5859C155.033 52.8366 154.939 53.0576 154.853 53.249C154.771 53.4404 154.702 53.5954 154.648 53.7139C154.593 53.8324 154.563 53.8962 154.559 53.9053C154.19 54.6709 153.784 55.0537 153.342 55.0537C153.16 55.0537 153.012 54.9922 152.898 54.8691C152.784 54.7507 152.727 54.5889 152.727 54.3838C152.727 54.1924 152.75 54.001 152.795 53.8096C152.845 53.6227 152.93 53.4154 153.048 53.1875C153.171 52.9596 153.331 52.7044 153.527 52.4219C153.727 52.1439 153.978 51.8158 154.279 51.4375L155.646 48.6689C154.962 49.4801 154.342 50.0999 153.786 50.5283C153.23 50.9567 152.711 51.1709 152.228 51.1709C152.073 51.1709 151.941 51.1344 151.831 51.0615C151.722 50.9932 151.667 50.877 151.667 50.7129C151.667 50.485 151.722 50.2275 151.831 49.9404C151.895 49.7855 151.959 49.6442 152.023 49.5166C152.086 49.3844 152.153 49.2546 152.221 49.127C152.289 48.9948 152.36 48.8535 152.433 48.7031C152.51 48.5527 152.592 48.3841 152.679 48.1973C152.77 48.0059 152.868 47.7871 152.973 47.541C153.082 47.2904 153.203 46.9987 153.335 46.666C153.426 46.4883 153.545 46.3607 153.691 46.2832C153.836 46.2012 153.978 46.1602 154.114 46.1602C154.256 46.1602 154.374 46.1943 154.47 46.2627C154.57 46.3265 154.62 46.4131 154.62 46.5225C154.62 46.5771 154.611 46.625 154.593 46.666L153.342 49.2705C153.278 49.4027 153.246 49.5075 153.246 49.585C153.246 49.6533 153.274 49.6875 153.328 49.6875C153.378 49.6875 153.442 49.6624 153.52 49.6123C153.597 49.5622 153.67 49.5052 153.738 49.4414L156.562 46.666ZM169.89 45.3604C169.963 45.3604 170.034 45.3695 170.102 45.3877C170.171 45.4059 170.232 45.431 170.287 45.4629C170.342 45.4948 170.385 45.5335 170.417 45.5791C170.449 45.6201 170.465 45.6634 170.465 45.709C170.465 45.7819 170.419 45.8571 170.328 45.9346C170.237 46.0075 170.08 46.0758 169.856 46.1396C169.633 46.2035 169.334 46.2559 168.961 46.2969C168.592 46.3379 168.124 46.3584 167.559 46.3584C167.254 46.3584 166.951 46.4017 166.65 46.4883C166.349 46.5703 166.081 46.6934 165.844 46.8574C165.607 47.0215 165.413 47.222 165.262 47.459C165.117 47.696 165.044 47.9671 165.044 48.2725C165.044 48.5186 165.078 48.7533 165.146 48.9766C165.219 49.1999 165.326 49.3958 165.468 49.5645C165.613 49.7331 165.793 49.8675 166.008 49.9678C166.226 50.068 166.484 50.1182 166.78 50.1182C167.377 50.1182 167.874 50.084 168.27 50.0156C168.667 49.9427 168.997 49.8538 169.262 49.749C169.53 49.6396 169.749 49.5234 169.918 49.4004C170.091 49.2773 170.25 49.1634 170.396 49.0586C170.547 48.9492 170.699 48.8604 170.854 48.792C171.014 48.7191 171.212 48.6826 171.449 48.6826C171.64 48.6826 171.791 48.7305 171.9 48.8262C172.01 48.9173 172.064 49.0495 172.064 49.2227C172.064 49.3411 172 49.4733 171.873 49.6191C171.75 49.765 171.572 49.9154 171.34 50.0703C171.112 50.2207 170.836 50.3665 170.512 50.5078C170.189 50.6491 169.829 50.7767 169.432 50.8906C169.036 51 168.61 51.0889 168.154 51.1572C167.698 51.2256 167.224 51.2598 166.732 51.2598C166.281 51.2598 165.857 51.1982 165.461 51.0752C165.064 50.9567 164.718 50.7767 164.422 50.5352C164.125 50.2936 163.891 49.9928 163.718 49.6328C163.549 49.2682 163.465 48.8421 163.465 48.3545C163.465 47.9352 163.56 47.5547 163.752 47.2129C163.943 46.8665 164.203 46.5635 164.531 46.3037C164.864 46.0439 165.249 45.8298 165.686 45.6611C166.128 45.4925 166.598 45.3763 167.095 45.3125C166.712 45.0254 166.443 44.7451 166.288 44.4717C166.133 44.1937 166.055 43.9202 166.055 43.6514C166.055 43.387 166.122 43.1432 166.254 42.9199C166.386 42.6921 166.566 42.4847 166.794 42.2979C167.026 42.111 167.295 41.9469 167.6 41.8057C167.906 41.6598 168.234 41.5391 168.585 41.4434C168.936 41.3431 169.298 41.2679 169.672 41.2178C170.05 41.1631 170.421 41.1357 170.786 41.1357C171.16 41.1357 171.513 41.1745 171.846 41.252C172.183 41.3294 172.484 41.4502 172.748 41.6143C173.012 41.7783 173.229 41.9857 173.397 42.2363C173.566 42.487 173.668 42.7832 173.705 43.125C173.705 43.2207 173.682 43.3187 173.637 43.4189C173.591 43.5192 173.52 43.6126 173.425 43.6992C173.333 43.7812 173.22 43.8496 173.083 43.9043C172.951 43.9544 172.796 43.9795 172.618 43.9795C172.522 43.9795 172.445 43.9681 172.386 43.9453C172.331 43.9225 172.288 43.8906 172.256 43.8496C172.228 43.8086 172.21 43.7607 172.201 43.7061C172.196 43.6468 172.194 43.583 172.194 43.5146C172.194 43.3005 172.169 43.1159 172.119 42.9609C172.069 42.806 171.985 42.6807 171.866 42.585C171.752 42.4847 171.602 42.4118 171.415 42.3662C171.228 42.3161 170.996 42.291 170.718 42.291C170.385 42.291 170.039 42.3275 169.679 42.4004C169.318 42.4688 168.988 42.5713 168.687 42.708C168.387 42.8402 168.138 42.9997 167.942 43.1865C167.751 43.3734 167.655 43.583 167.655 43.8154C167.655 44.0889 167.717 44.3236 167.84 44.5195C167.967 44.7155 168.134 44.8773 168.339 45.0049C168.548 45.1279 168.788 45.2191 169.056 45.2783C169.325 45.333 169.603 45.3604 169.89 45.3604ZM172.99 49.0244C172.94 49.1292 172.89 49.2523 172.839 49.3936C172.794 49.5303 172.771 49.6533 172.771 49.7627C172.771 49.8311 172.785 49.8857 172.812 49.9268C172.839 49.9678 172.892 49.9883 172.969 49.9883C173.065 49.9883 173.184 49.9609 173.325 49.9062C173.471 49.847 173.626 49.7718 173.79 49.6807C173.958 49.585 174.131 49.4779 174.309 49.3594C174.491 49.2363 174.671 49.111 174.849 48.9834C175.027 48.8512 175.196 48.7214 175.355 48.5938C175.519 48.4616 175.665 48.3408 175.793 48.2314C175.829 48.1995 175.872 48.1768 175.922 48.1631C175.973 48.1494 176.016 48.1426 176.052 48.1426C176.143 48.1426 176.219 48.1745 176.278 48.2383C176.337 48.3021 176.367 48.3864 176.367 48.4912C176.367 48.5869 176.335 48.694 176.271 48.8125C176.207 48.931 176.096 49.0472 175.936 49.1611C175.644 49.43 175.351 49.6852 175.054 49.9268C174.758 50.1683 174.462 50.3825 174.166 50.5693C173.874 50.7516 173.582 50.8975 173.291 51.0068C173.004 51.1162 172.723 51.1709 172.45 51.1709C172.263 51.1709 172.106 51.1458 171.978 51.0957C171.855 51.0456 171.755 50.9772 171.677 50.8906C171.604 50.804 171.552 50.7015 171.52 50.583C171.488 50.4645 171.472 50.3392 171.472 50.207C171.472 49.9837 171.504 49.7559 171.568 49.5234C171.636 49.2865 171.716 49.07 171.807 48.874C171.967 48.5186 172.129 48.1654 172.293 47.8145C172.457 47.4635 172.607 47.1423 172.744 46.8506L174.815 42.4414C174.897 42.2637 175.006 42.1383 175.143 42.0654C175.284 41.9925 175.426 41.9561 175.567 41.9561C175.708 41.9561 175.836 41.9948 175.95 42.0723C176.068 42.1497 176.128 42.2751 176.128 42.4482C176.128 42.5303 176.107 42.6169 176.066 42.708C176.03 42.7992 175.982 42.8971 175.922 43.002C175.809 43.2161 175.672 43.4782 175.512 43.7881C175.357 44.098 175.189 44.4352 175.006 44.7998C174.829 45.1644 174.644 45.5449 174.453 45.9414C174.266 46.3333 174.081 46.7161 173.899 47.0898C173.721 47.4635 173.553 47.819 173.393 48.1562C173.238 48.4889 173.104 48.7783 172.99 49.0244ZM177.798 45.0869C177.798 44.9821 177.816 44.875 177.853 44.7656C177.894 44.6517 177.953 44.5492 178.031 44.458C178.108 44.3669 178.204 44.2917 178.318 44.2324C178.436 44.1732 178.575 44.1436 178.735 44.1436C178.999 44.1436 179.184 44.196 179.288 44.3008C179.393 44.401 179.446 44.5286 179.446 44.6836C179.446 44.7702 179.427 44.8659 179.391 44.9707C179.359 45.0755 179.309 45.1735 179.241 45.2646C179.172 45.3512 179.083 45.4242 178.974 45.4834C178.865 45.5426 178.735 45.5723 178.584 45.5723C178.302 45.5723 178.104 45.529 177.99 45.4424C177.876 45.3512 177.812 45.2327 177.798 45.0869ZM177.046 46.625C177.124 46.4974 177.213 46.4062 177.313 46.3516C177.413 46.2969 177.516 46.2695 177.62 46.2695C177.794 46.2695 177.942 46.3265 178.065 46.4404C178.192 46.5498 178.256 46.6911 178.256 46.8643C178.252 46.9053 178.245 46.9463 178.236 46.9873C178.231 47.0283 178.218 47.0693 178.195 47.1104C178.131 47.2288 178.079 47.3291 178.037 47.4111C177.996 47.4932 177.958 47.5706 177.921 47.6436C177.889 47.7119 177.857 47.7803 177.826 47.8486C177.794 47.917 177.755 47.999 177.709 48.0947C177.655 48.2087 177.593 48.334 177.525 48.4707C177.456 48.6029 177.39 48.7396 177.327 48.8809C177.267 49.0221 177.215 49.1611 177.169 49.2979C177.128 49.4346 177.108 49.5599 177.108 49.6738C177.108 49.7969 177.137 49.8789 177.197 49.9199C177.26 49.9564 177.349 49.9746 177.463 49.9746C177.591 49.9746 177.723 49.9473 177.86 49.8926C178.001 49.8379 178.142 49.7673 178.284 49.6807C178.425 49.5941 178.564 49.4961 178.701 49.3867C178.837 49.2728 178.965 49.1589 179.083 49.0449C179.206 48.931 179.318 48.8216 179.418 48.7168C179.523 48.612 179.61 48.5186 179.678 48.4365C179.769 48.3499 179.86 48.3066 179.952 48.3066C180.034 48.3066 180.1 48.3431 180.15 48.416C180.204 48.4889 180.232 48.5824 180.232 48.6963C180.232 48.8011 180.204 48.9128 180.15 49.0312C180.1 49.1497 180.015 49.2614 179.897 49.3662C179.664 49.6032 179.427 49.8311 179.186 50.0498C178.944 50.264 178.696 50.4554 178.441 50.624C178.19 50.7881 177.937 50.9202 177.682 51.0205C177.427 51.1208 177.169 51.1709 176.91 51.1709C176.54 51.1709 176.249 51.0775 176.035 50.8906C175.825 50.6992 175.72 50.403 175.72 50.002C175.72 49.7923 175.75 49.5872 175.809 49.3867C175.868 49.1862 175.939 48.9925 176.021 48.8057C176.103 48.6143 176.19 48.432 176.281 48.2588C176.372 48.0811 176.449 47.9124 176.513 47.7529C176.536 47.6937 176.575 47.6025 176.629 47.4795C176.689 47.3564 176.75 47.2311 176.814 47.1035C176.887 46.9531 176.964 46.7936 177.046 46.625ZM182.094 47.1514C182.372 47.2972 182.62 47.4635 182.839 47.6504C183.058 47.8372 183.242 48.0355 183.393 48.2451C183.548 48.4502 183.664 48.6598 183.741 48.874C183.823 49.0882 183.864 49.2979 183.864 49.5029C183.864 49.7627 183.789 49.9974 183.639 50.207C183.493 50.4121 183.299 50.5876 183.058 50.7334C182.821 50.8747 182.547 50.9818 182.238 51.0547C181.932 51.1322 181.622 51.1709 181.308 51.1709C181.071 51.1709 180.841 51.1436 180.617 51.0889C180.394 51.0387 180.189 50.959 180.002 50.8496C179.82 50.7402 179.663 50.6012 179.53 50.4326C179.398 50.2594 179.305 50.0544 179.25 49.8174C179.241 49.7809 179.237 49.7513 179.237 49.7285C179.237 49.6055 179.28 49.5007 179.366 49.4141C179.453 49.3229 179.549 49.2773 179.654 49.2773C179.704 49.2773 179.758 49.2865 179.818 49.3047C179.881 49.3229 179.929 49.3639 179.961 49.4277C180.02 49.5371 180.102 49.6351 180.207 49.7217C180.317 49.8083 180.437 49.8835 180.57 49.9473C180.702 50.0065 180.841 50.0544 180.987 50.0908C181.137 50.1227 181.283 50.1387 181.424 50.1387C181.57 50.1387 181.709 50.125 181.841 50.0977C181.978 50.0703 182.096 50.027 182.196 49.9678C182.301 49.9085 182.383 49.8333 182.443 49.7422C182.502 49.651 182.531 49.5394 182.531 49.4072C182.531 49.1748 182.479 48.9606 182.374 48.7646C182.269 48.5687 182.133 48.3887 181.964 48.2246C181.8 48.056 181.611 47.901 181.397 47.7598C181.187 47.6139 180.977 47.4749 180.768 47.3428C180.745 47.3291 180.711 47.2904 180.665 47.2266C180.62 47.1582 180.597 47.0898 180.597 47.0215C180.597 46.9668 180.611 46.9235 180.638 46.8916C180.711 46.7959 180.795 46.6979 180.891 46.5977C180.987 46.4974 181.089 46.4062 181.198 46.3242C181.308 46.2376 181.426 46.1693 181.554 46.1191C181.682 46.0645 181.814 46.0371 181.95 46.0371C182.051 46.0371 182.144 46.0508 182.231 46.0781C182.317 46.1055 182.39 46.1419 182.449 46.1875C182.509 46.2285 182.554 46.2764 182.586 46.3311C182.623 46.3812 182.641 46.429 182.641 46.4746C182.641 46.5384 182.625 46.5999 182.593 46.6592C182.561 46.7184 182.518 46.7754 182.463 46.8301C182.413 46.8848 182.354 46.9395 182.285 46.9941C182.222 47.0488 182.158 47.1012 182.094 47.1514ZM187.716 47.2676C187.502 47.2676 187.294 47.3223 187.094 47.4316C186.893 47.541 186.715 47.6846 186.561 47.8623C186.406 48.04 186.283 48.2406 186.191 48.4639C186.1 48.6826 186.055 48.9036 186.055 49.127C186.055 49.2181 186.059 49.3138 186.068 49.4141C186.082 49.5098 186.109 49.5986 186.15 49.6807C186.191 49.7627 186.248 49.8311 186.321 49.8857C186.399 49.9404 186.501 49.9678 186.629 49.9678C186.729 49.9678 186.845 49.9245 186.978 49.8379C187.114 49.7467 187.253 49.6328 187.395 49.4961C187.54 49.3548 187.682 49.2021 187.818 49.0381C187.955 48.8695 188.078 48.7054 188.188 48.5459C188.297 48.3864 188.386 48.2428 188.454 48.1152C188.522 47.9876 188.557 47.8942 188.557 47.835C188.557 47.7484 188.527 47.6709 188.468 47.6025C188.409 47.5296 188.336 47.4681 188.249 47.418C188.162 47.3678 188.069 47.3314 187.969 47.3086C187.873 47.2812 187.789 47.2676 187.716 47.2676ZM192.453 49.0312C192.371 49.1087 192.262 49.2158 192.125 49.3525C191.988 49.4893 191.831 49.6374 191.653 49.7969C191.48 49.9564 191.293 50.1182 191.093 50.2822C190.897 50.4417 190.694 50.5876 190.484 50.7197C190.279 50.8519 190.076 50.959 189.876 51.041C189.675 51.1276 189.486 51.1709 189.309 51.1709C189.149 51.1709 189.012 51.1367 188.898 51.0684C188.785 51 188.689 50.9111 188.611 50.8018C188.538 50.6924 188.484 50.5693 188.447 50.4326C188.411 50.2913 188.393 50.1478 188.393 50.002C188.393 49.9062 188.399 49.8128 188.413 49.7217C188.427 49.626 188.45 49.5371 188.481 49.4551C188.34 49.6465 188.178 49.8447 187.996 50.0498C187.818 50.2503 187.625 50.4349 187.415 50.6035C187.21 50.7676 186.993 50.902 186.766 51.0068C186.542 51.1162 186.314 51.1709 186.082 51.1709C185.964 51.1709 185.825 51.1458 185.665 51.0957C185.51 51.0501 185.362 50.9727 185.221 50.8633C185.079 50.7539 184.961 50.6126 184.865 50.4395C184.77 50.2663 184.722 50.0544 184.722 49.8037C184.722 49.6169 184.749 49.3936 184.804 49.1338C184.863 48.874 184.95 48.6051 185.063 48.3271C185.182 48.0446 185.33 47.7666 185.508 47.4932C185.69 47.2197 185.904 46.9759 186.15 46.7617C186.396 46.543 186.677 46.3675 186.991 46.2354C187.306 46.0986 187.657 46.0303 188.044 46.0303C188.244 46.0303 188.42 46.0553 188.57 46.1055C188.721 46.1556 188.848 46.2103 188.953 46.2695C189.072 46.3424 189.176 46.4222 189.268 46.5088C189.345 46.4678 189.425 46.429 189.507 46.3926C189.575 46.3607 189.646 46.3333 189.719 46.3105C189.796 46.2832 189.862 46.2695 189.917 46.2695C190.09 46.2695 190.231 46.3174 190.341 46.4131C190.45 46.5088 190.505 46.6136 190.505 46.7275C190.505 46.7594 190.503 46.7845 190.498 46.8027C190.475 46.8893 190.439 46.9987 190.389 47.1309C190.343 47.263 190.291 47.4111 190.231 47.5752C190.172 47.7347 190.111 47.9033 190.047 48.0811C189.988 48.2542 189.933 48.4251 189.883 48.5938C189.833 48.7624 189.792 48.9219 189.76 49.0723C189.728 49.2181 189.712 49.3434 189.712 49.4482C189.712 49.585 189.735 49.6989 189.78 49.79C189.826 49.8766 189.903 49.9199 190.013 49.9199C190.081 49.9199 190.161 49.8994 190.252 49.8584C190.348 49.8128 190.45 49.7536 190.56 49.6807C190.669 49.6077 190.781 49.5257 190.895 49.4346C191.013 49.3389 191.127 49.2432 191.236 49.1475C191.492 48.9196 191.763 48.6598 192.05 48.3682C192.123 48.3089 192.193 48.2793 192.262 48.2793C192.353 48.2793 192.428 48.3249 192.487 48.416C192.551 48.5026 192.583 48.6006 192.583 48.71C192.583 48.8376 192.54 48.9447 192.453 49.0312ZM195.874 47.165C195.614 47.165 195.354 47.2288 195.095 47.3564C194.835 47.4795 194.6 47.6436 194.39 47.8486C194.185 48.0537 194.017 48.2861 193.885 48.5459C193.752 48.8011 193.686 49.0609 193.686 49.3252C193.686 49.3981 193.693 49.4733 193.707 49.5508C193.721 49.6237 193.748 49.6921 193.789 49.7559C193.834 49.8197 193.898 49.8721 193.98 49.9131C194.062 49.9541 194.172 49.9746 194.308 49.9746C194.573 49.9746 194.828 49.9131 195.074 49.79C195.325 49.6624 195.548 49.4961 195.744 49.291C195.94 49.0859 196.097 48.8558 196.216 48.6006C196.334 48.3408 196.393 48.0811 196.393 47.8213C196.393 47.7529 196.387 47.68 196.373 47.6025C196.364 47.5251 196.341 47.4544 196.304 47.3906C196.268 47.3268 196.216 47.2744 196.147 47.2334C196.079 47.1878 195.988 47.165 195.874 47.165ZM196.448 49.9199C196.061 50.3848 195.648 50.7266 195.211 50.9453C194.778 51.1595 194.308 51.2666 193.803 51.2666C193.525 51.2666 193.29 51.2256 193.098 51.1436C192.907 51.0661 192.752 50.959 192.634 50.8223C192.515 50.6855 192.429 50.526 192.374 50.3438C192.324 50.1615 192.299 49.9678 192.299 49.7627C192.299 49.5303 192.328 49.291 192.387 49.0449C192.447 48.7943 192.524 48.5527 192.62 48.3203C192.684 48.1699 192.736 48.0446 192.777 47.9443C192.818 47.8441 192.852 47.7598 192.88 47.6914C192.907 47.6185 192.93 47.557 192.948 47.5068C192.971 47.4521 192.994 47.3975 193.016 47.3428C193.039 47.2835 193.067 47.2174 193.098 47.1445C193.13 47.0671 193.174 46.9691 193.228 46.8506L195.224 42.4141C195.252 42.3548 195.29 42.2979 195.341 42.2432C195.395 42.1885 195.457 42.1406 195.525 42.0996C195.594 42.054 195.666 42.0199 195.744 41.9971C195.826 41.9697 195.908 41.9561 195.99 41.9561C196.2 41.9561 196.346 41.9971 196.428 42.0791C196.514 42.1611 196.557 42.2614 196.557 42.3799C196.557 42.471 196.535 42.5713 196.489 42.6807C196.443 42.7855 196.393 42.8835 196.339 42.9746C196.001 43.6217 195.682 44.2803 195.382 44.9502C195.081 45.6156 194.762 46.2741 194.425 46.9258C194.57 46.8118 194.725 46.7025 194.889 46.5977C195.054 46.4883 195.224 46.3926 195.402 46.3105C195.58 46.224 195.764 46.1556 195.956 46.1055C196.147 46.0508 196.343 46.0234 196.544 46.0234C196.685 46.0234 196.829 46.0508 196.974 46.1055C197.12 46.1602 197.252 46.2399 197.371 46.3447C197.494 46.4495 197.592 46.5794 197.665 46.7344C197.742 46.8848 197.781 47.0602 197.781 47.2607C197.781 47.3063 197.767 47.3975 197.74 47.5342C197.713 47.6709 197.672 47.8258 197.617 47.999C197.567 48.1676 197.503 48.3431 197.426 48.5254C197.353 48.7031 197.271 48.8604 197.179 48.9971C197.211 49.0472 197.252 49.0791 197.303 49.0928C197.353 49.1019 197.41 49.1064 197.473 49.1064C197.683 49.1064 197.89 49.0791 198.096 49.0244C198.305 48.9697 198.501 48.9036 198.683 48.8262C198.87 48.7441 199.041 48.6598 199.196 48.5732C199.351 48.4867 199.481 48.4115 199.586 48.3477C199.64 48.2884 199.7 48.2588 199.763 48.2588C199.841 48.2588 199.907 48.293 199.962 48.3613C200.021 48.4297 200.051 48.5186 200.051 48.6279C200.051 48.7327 200.028 48.8376 199.982 48.9424C199.941 49.0426 199.864 49.1543 199.75 49.2773C199.545 49.4004 199.337 49.5166 199.128 49.626C198.923 49.7354 198.713 49.8311 198.499 49.9131C198.285 49.9906 198.066 50.0544 197.843 50.1045C197.624 50.1501 197.401 50.1729 197.173 50.1729C197.027 50.1729 196.892 50.1523 196.769 50.1113C196.646 50.0703 196.539 50.0065 196.448 49.9199ZM202.159 46.9668C202.136 46.9622 202.115 46.96 202.097 46.96C202.079 46.96 202.059 46.96 202.036 46.96C201.863 46.96 201.701 46.9941 201.55 47.0625C201.4 47.1309 201.261 47.222 201.133 47.3359C201.01 47.4453 200.899 47.5706 200.798 47.7119C200.703 47.8532 200.616 47.9945 200.539 48.1357C200.461 48.2725 200.395 48.4046 200.34 48.5322C200.29 48.6598 200.252 48.7669 200.224 48.8535C200.384 48.7715 200.548 48.6781 200.716 48.5732C200.89 48.4684 201.051 48.3682 201.202 48.2725C201.352 48.1768 201.482 48.0902 201.591 48.0127C201.705 47.9352 201.785 47.8828 201.831 47.8555C202.036 47.7279 202.177 47.6094 202.254 47.5C202.332 47.3861 202.371 47.2881 202.371 47.2061C202.371 47.1377 202.348 47.083 202.302 47.042C202.261 47.001 202.213 46.9759 202.159 46.9668ZM202.405 46.0234C202.783 46.0234 203.066 46.1146 203.253 46.2969C203.439 46.4792 203.533 46.7321 203.533 47.0557C203.533 47.2471 203.483 47.4476 203.382 47.6572C203.282 47.8669 203.109 48.0811 202.863 48.2998C202.617 48.514 202.286 48.735 201.872 48.9629C201.462 49.1862 200.947 49.4118 200.327 49.6396C200.35 49.7718 200.42 49.8766 200.539 49.9541C200.657 50.027 200.814 50.0635 201.01 50.0635C201.22 50.0635 201.443 50.0339 201.68 49.9746C201.922 49.9108 202.159 49.8311 202.391 49.7354C202.628 49.6396 202.858 49.5371 203.082 49.4277C203.305 49.3138 203.505 49.2067 203.683 49.1064C203.865 49.0062 204.016 48.9196 204.134 48.8467C204.257 48.7738 204.339 48.7282 204.38 48.71C204.421 48.6826 204.458 48.6667 204.49 48.6621C204.526 48.6576 204.558 48.6553 204.586 48.6553C204.64 48.6553 204.686 48.6689 204.722 48.6963C204.759 48.7191 204.788 48.7487 204.811 48.7852C204.838 48.8171 204.857 48.8535 204.866 48.8945C204.875 48.931 204.879 48.9629 204.879 48.9902C204.879 49.0312 204.875 49.0814 204.866 49.1406C204.857 49.1953 204.823 49.2591 204.763 49.332C204.74 49.3548 204.663 49.4163 204.531 49.5166C204.403 49.6169 204.237 49.7354 204.032 49.8721C203.827 50.0088 203.587 50.1546 203.314 50.3096C203.045 50.46 202.758 50.599 202.453 50.7266C202.152 50.8542 201.837 50.959 201.509 51.041C201.181 51.1276 200.858 51.1709 200.539 51.1709C200.265 51.1709 200.021 51.1185 199.807 51.0137C199.598 50.9089 199.418 50.7676 199.267 50.5898C199.121 50.4121 199.01 50.207 198.932 49.9746C198.855 49.7422 198.816 49.4984 198.816 49.2432C198.816 49.0472 198.855 48.833 198.932 48.6006C199.01 48.3636 199.121 48.1266 199.267 47.8896C199.413 47.6527 199.591 47.4225 199.8 47.1992C200.015 46.9714 200.254 46.7708 200.518 46.5977C200.782 46.4245 201.072 46.2855 201.386 46.1807C201.705 46.0758 202.045 46.0234 202.405 46.0234ZM206.885 47.1992C206.717 47.5273 206.557 47.8486 206.407 48.1631C206.256 48.473 206.115 48.7601 205.983 49.0244C205.928 49.1338 205.873 49.2614 205.819 49.4072C205.769 49.5485 205.744 49.6738 205.744 49.7832C205.744 49.847 205.757 49.8971 205.785 49.9336C205.816 49.9701 205.867 49.9883 205.935 49.9883C206.031 49.9883 206.151 49.9609 206.297 49.9062C206.443 49.847 206.6 49.7718 206.769 49.6807C206.938 49.585 207.115 49.4779 207.302 49.3594C207.489 49.2363 207.671 49.111 207.849 48.9834C208.031 48.8512 208.204 48.7214 208.369 48.5938C208.533 48.4616 208.678 48.3408 208.806 48.2314C208.879 48.1813 208.947 48.1562 209.011 48.1562C209.089 48.1562 209.152 48.1904 209.203 48.2588C209.253 48.3271 209.278 48.4137 209.278 48.5186C209.278 48.6234 209.253 48.7305 209.203 48.8398C209.152 48.9492 209.061 49.0563 208.929 49.1611C208.633 49.43 208.332 49.6852 208.027 49.9268C207.726 50.1683 207.425 50.3825 207.124 50.5693C206.828 50.7516 206.534 50.8975 206.243 51.0068C205.951 51.1162 205.668 51.1709 205.395 51.1709C205.213 51.1709 205.06 51.1458 204.937 51.0957C204.814 51.0501 204.714 50.9863 204.636 50.9043C204.563 50.8177 204.511 50.7197 204.479 50.6104C204.447 50.4964 204.431 50.3757 204.431 50.248C204.431 50.0202 204.47 49.7832 204.547 49.5371C204.625 49.291 204.711 49.07 204.807 48.874C204.944 48.5915 205.078 48.3112 205.21 48.0332C205.347 47.7552 205.479 47.4886 205.607 47.2334H205.313C205.058 47.2334 204.882 47.1924 204.787 47.1104C204.691 47.0283 204.643 46.9349 204.643 46.8301C204.643 46.7845 204.657 46.7298 204.684 46.666C204.716 46.5977 204.759 46.5361 204.814 46.4814C204.873 46.4222 204.944 46.3721 205.026 46.3311C205.108 46.29 205.201 46.2695 205.306 46.2695H206.044L207.487 43.4053C207.578 43.2321 207.69 43.109 207.822 43.0361C207.958 42.9587 208.1 42.9199 208.245 42.9199C208.382 42.9199 208.508 42.9564 208.621 43.0293C208.735 43.1022 208.792 43.223 208.792 43.3916C208.792 43.4782 208.772 43.5671 208.731 43.6582C208.694 43.7448 208.644 43.8473 208.58 43.9658C208.539 44.0433 208.489 44.1367 208.43 44.2461C208.371 44.3509 208.307 44.4648 208.239 44.5879C208.175 44.7064 208.107 44.8317 208.034 44.9639C207.965 45.096 207.897 45.2236 207.829 45.3467C207.674 45.6383 207.509 45.946 207.336 46.2695H209.565C209.674 46.2695 209.774 46.2764 209.866 46.29C209.957 46.2992 210.034 46.3219 210.098 46.3584C210.166 46.3903 210.219 46.4359 210.255 46.4951C210.292 46.5544 210.31 46.6341 210.31 46.7344C210.31 46.7845 210.301 46.8346 210.283 46.8848C210.269 46.9349 210.239 46.9805 210.194 47.0215C210.153 47.0625 210.093 47.0967 210.016 47.124C209.943 47.1514 209.847 47.1696 209.729 47.1787L206.885 47.1992ZM208.501 49.9199C208.611 49.6875 208.736 49.43 208.877 49.1475C209.018 48.8604 209.16 48.5778 209.301 48.2998C209.447 48.0173 209.584 47.7507 209.711 47.5C209.839 47.2448 209.946 47.0283 210.032 46.8506L212.288 42.4141C212.316 42.3548 212.357 42.2979 212.411 42.2432C212.471 42.1885 212.537 42.1406 212.61 42.0996C212.682 42.054 212.76 42.0199 212.842 41.9971C212.924 41.9697 213.006 41.9561 213.088 41.9561C213.289 41.9561 213.428 41.9948 213.505 42.0723C213.583 42.1452 213.621 42.2363 213.621 42.3457C213.621 42.446 213.596 42.5531 213.546 42.667C213.496 42.7764 213.439 42.8789 213.375 42.9746C213.175 43.3164 212.981 43.6628 212.794 44.0137C212.612 44.36 212.427 44.7109 212.24 45.0664C212.058 45.4173 211.874 45.7682 211.687 46.1191C211.5 46.4655 211.304 46.8096 211.099 47.1514C211.226 47.0283 211.361 46.9007 211.502 46.7686C211.648 46.6364 211.805 46.5156 211.974 46.4062C212.142 46.2969 212.327 46.208 212.528 46.1396C212.728 46.0667 212.951 46.0303 213.197 46.0303C213.343 46.0303 213.482 46.0439 213.614 46.0713C213.747 46.0986 213.863 46.1442 213.963 46.208C214.063 46.2673 214.143 46.3516 214.202 46.4609C214.262 46.5658 214.291 46.6956 214.291 46.8506C214.291 47.0557 214.259 47.2448 214.196 47.418C214.136 47.5866 214.059 47.7484 213.963 47.9033C213.867 48.0537 213.763 48.1995 213.649 48.3408C213.535 48.4775 213.425 48.6188 213.321 48.7646C213.22 48.9059 213.131 49.054 213.054 49.209C212.981 49.3639 212.935 49.5326 212.917 49.7148C212.917 49.724 212.915 49.7331 212.91 49.7422C212.91 49.7513 212.91 49.7604 212.91 49.7695C212.91 49.8607 212.94 49.9176 212.999 49.9404C213.063 49.9632 213.143 49.9746 213.238 49.9746C213.362 49.9746 213.494 49.9518 213.635 49.9062C213.776 49.8561 213.918 49.7923 214.059 49.7148C214.205 49.6328 214.348 49.5417 214.489 49.4414C214.635 49.3411 214.772 49.2386 214.9 49.1338C215.032 49.029 215.153 48.9287 215.262 48.833C215.371 48.7327 215.465 48.6462 215.542 48.5732C215.583 48.5368 215.627 48.5094 215.672 48.4912C215.718 48.473 215.761 48.4639 215.802 48.4639C215.884 48.4639 215.952 48.4958 216.007 48.5596C216.066 48.6188 216.096 48.7008 216.096 48.8057C216.096 48.9014 216.062 49.0107 215.993 49.1338C215.93 49.2568 215.818 49.3799 215.658 49.5029C215.408 49.7217 215.153 49.9313 214.893 50.1318C214.633 50.3324 214.371 50.5101 214.107 50.665C213.842 50.82 213.578 50.943 213.314 51.0342C213.054 51.1253 212.799 51.1709 212.548 51.1709C212.224 51.1709 211.965 51.098 211.769 50.9521C211.573 50.8018 211.475 50.5671 211.475 50.248C211.475 50.0156 211.514 49.7969 211.591 49.5918C211.673 49.3822 211.771 49.1816 211.885 48.9902C212.003 48.7943 212.129 48.6074 212.261 48.4297C212.393 48.2474 212.509 48.0697 212.61 47.8965C212.664 47.819 212.705 47.7484 212.733 47.6846C212.765 47.6162 212.78 47.5433 212.78 47.4658C212.78 47.3975 212.762 47.3428 212.726 47.3018C212.689 47.2562 212.632 47.2334 212.555 47.2334C212.286 47.2334 212.038 47.2995 211.81 47.4316C211.582 47.5638 211.372 47.7324 211.181 47.9375C210.989 48.1426 210.812 48.3682 210.648 48.6143C210.484 48.8558 210.331 49.0882 210.19 49.3115C210.126 49.4118 210.06 49.528 209.991 49.6602C209.928 49.7878 209.859 49.9199 209.786 50.0566C209.718 50.1934 209.645 50.3301 209.568 50.4668C209.49 50.599 209.408 50.7174 209.321 50.8223C209.239 50.9271 209.151 51.0114 209.055 51.0752C208.964 51.139 208.868 51.1709 208.768 51.1709C208.608 51.1709 208.485 51.123 208.399 51.0273C208.312 50.9362 208.269 50.82 208.269 50.6787C208.269 50.5739 208.287 50.4645 208.323 50.3506C208.36 50.2321 208.419 50.0885 208.501 49.9199Z" fill="#FDF3E8"/>
</svg>
