<svg width="71" height="70" viewBox="0 0 71 70" fill="none" xmlns="http://www.w3.org/2000/svg">
<path d="M22.6875 69.7812C18.5312 69.7812 14.7656 69.0469 11.3906 67.5781C8.01562 66.1094 5.3125 63.9219 3.28125 61.0156C1.28125 58.1094 0.28125 54.5 0.28125 50.1875C0.28125 47.125 0.9375 44.4062 2.25 42.0312C3.5625 39.6562 5.35938 37.5781 7.64062 35.7969C9.89062 34.0156 12.5156 32.5469 15.5156 31.3906C18.5469 30.2344 21.7656 29.4375 25.1719 29C22.5469 27.0312 20.7031 25.1094 19.6406 23.2344C18.5781 21.3281 18.0469 19.4531 18.0469 17.6094C18.0469 14.9219 19.0312 12.5156 21 10.3906C22.9688 8.23438 25.5156 6.40625 28.6406 4.90625C31.6094 3.53125 35 2.4375 38.8125 1.625C42.625 0.78125 46.5156 0.359375 50.4844 0.359375C53.9531 0.359375 57.1406 0.859375 60.0469 1.85938C62.9531 2.82813 65.3438 4.3125 67.2188 6.3125C69.0938 8.3125 70.1875 10.875 70.5 14C70.5 15.375 69.8438 16.7031 68.5312 17.9844C67.25 19.2344 65.4219 19.8594 63.0469 19.8594C61.7031 19.8594 60.875 19.5625 60.5625 18.9688C60.2812 18.3438 60.1406 17.5781 60.1406 16.6719C60.1406 13.7656 59.4062 11.6406 57.9375 10.2969C56.4688 8.95312 53.8281 8.28125 50.0156 8.28125C47.7344 8.28125 45.3594 8.53125 42.8906 9.03125C40.4219 9.5 38.1562 10.1875 36.0938 11.0938C34.0312 12.0312 32.3281 13.1406 30.9844 14.4219C29.6719 15.7031 29.0156 17.1406 29.0156 18.7344C29.0156 21.2344 29.75 23.2656 31.2188 24.8281C32.6875 26.3906 34.5781 27.5312 36.8906 28.25C39.2344 28.9688 41.7188 29.3281 44.3438 29.3281C45.3438 29.3281 46.25 29.5625 47.0625 30.0312C47.875 30.5 48.2812 31.0625 48.2812 31.7188C48.2812 32.875 46.8906 33.8594 44.1094 34.6719C42.5781 35.1094 40.5312 35.4688 37.9688 35.75C35.4375 36.0312 32.2344 36.1719 28.3594 36.1719C25.6094 36.1719 22.9062 36.7031 20.25 37.7656C17.625 38.8281 15.4375 40.4688 13.6875 42.6875C11.9688 44.9062 11.1094 47.75 11.1094 51.2188C11.1094 52.8125 11.5781 54.4375 12.5156 56.0938C13.4531 57.75 15 59.1406 17.1562 60.2656C19.3125 61.3906 22.2031 61.9531 25.8281 61.9531C28.5156 61.9531 31.1094 61.7188 33.6094 61.25C36.1094 60.75 38.2656 60.125 40.0781 59.375C41.8594 58.6875 43.3594 57.9062 44.5781 57.0312C45.7656 56.1562 46.8438 55.3594 47.8125 54.6406C48.8125 53.9219 49.875 53.3125 51 52.8125C52.0938 52.3438 53.4375 52.1094 55.0312 52.1094C57.8438 52.1094 59.25 53.3438 59.25 55.8125C59.25 57.0312 58.2812 58.4531 56.3438 60.0781C54.4375 61.7031 51.8594 63.2188 48.6094 64.625C45.2656 66.0625 41.3438 67.2812 36.8438 68.2812C32.3438 69.2812 27.625 69.7812 22.6875 69.7812Z" fill="#F9F0E8"/>
</svg>
