<svg width="211" height="45" viewBox="0 0 211 45" fill="none" xmlns="http://www.w3.org/2000/svg">
<path d="M2.844 15.716C2.844 16.208 2.928 16.628 3.096 16.976C3.264 17.324 3.498 17.612 3.798 17.84C4.098 18.056 4.44 18.218 4.824 18.326C5.22 18.422 5.646 18.47 6.102 18.47C6.594 18.47 7.014 18.416 7.362 18.308C7.71 18.188 7.992 18.038 8.208 17.858C8.424 17.678 8.58 17.474 8.676 17.246C8.772 17.006 8.82 16.766 8.82 16.526C8.82 16.034 8.706 15.674 8.478 15.446C8.262 15.206 8.022 15.038 7.758 14.942C7.302 14.774 6.768 14.618 6.156 14.474C5.556 14.318 4.812 14.12 3.924 13.88C3.372 13.736 2.91 13.55 2.538 13.322C2.178 13.082 1.89 12.818 1.674 12.53C1.458 12.242 1.302 11.936 1.206 11.612C1.122 11.288 1.08 10.958 1.08 10.622C1.08 9.974 1.212 9.416 1.476 8.948C1.752 8.468 2.112 8.072 2.556 7.76C3 7.448 3.504 7.22 4.068 7.076C4.632 6.92 5.202 6.842 5.778 6.842C6.45 6.842 7.08 6.932 7.668 7.112C8.268 7.28 8.79 7.538 9.234 7.886C9.69 8.234 10.05 8.666 10.314 9.182C10.578 9.686 10.71 10.274 10.71 10.946H8.46C8.4 10.118 8.118 9.536 7.614 9.2C7.11 8.852 6.468 8.678 5.688 8.678C5.424 8.678 5.154 8.708 4.878 8.768C4.602 8.816 4.35 8.906 4.122 9.038C3.894 9.158 3.702 9.326 3.546 9.542C3.402 9.758 3.33 10.028 3.33 10.352C3.33 10.808 3.468 11.168 3.744 11.432C4.032 11.684 4.404 11.876 4.86 12.008C4.908 12.02 5.094 12.074 5.418 12.17C5.754 12.254 6.126 12.35 6.534 12.458C6.942 12.566 7.338 12.674 7.722 12.782C8.118 12.878 8.4 12.95 8.568 12.998C8.988 13.13 9.354 13.31 9.666 13.538C9.978 13.766 10.236 14.03 10.44 14.33C10.656 14.618 10.812 14.93 10.908 15.266C11.016 15.602 11.07 15.938 11.07 16.274C11.07 16.994 10.92 17.612 10.62 18.128C10.332 18.632 9.948 19.046 9.468 19.37C8.988 19.694 8.442 19.928 7.83 20.072C7.218 20.228 6.594 20.306 5.958 20.306C5.226 20.306 4.536 20.216 3.888 20.036C3.24 19.856 2.676 19.58 2.196 19.208C1.716 18.836 1.332 18.362 1.044 17.786C0.756 17.198 0.606 16.508 0.594 15.716H2.844ZM13.9399 7.148H16.1899V12.998L21.9139 7.148H24.6859L19.5559 12.278L25.0459 20H22.2379L18.0259 13.862L16.1899 15.68V20H13.9399V7.148ZM32.6341 8.678C31.9501 8.678 31.3561 8.816 30.8521 9.092C30.3601 9.368 29.9581 9.74 29.6461 10.208C29.3341 10.664 29.1001 11.186 28.9441 11.774C28.8001 12.362 28.7281 12.962 28.7281 13.574C28.7281 14.186 28.8001 14.786 28.9441 15.374C29.1001 15.962 29.3341 16.49 29.6461 16.958C29.9581 17.414 30.3601 17.78 30.8521 18.056C31.3561 18.332 31.9501 18.47 32.6341 18.47C33.3181 18.47 33.9061 18.332 34.3981 18.056C34.9021 17.78 35.3101 17.414 35.6221 16.958C35.9341 16.49 36.1621 15.962 36.3061 15.374C36.4621 14.786 36.5401 14.186 36.5401 13.574C36.5401 12.962 36.4621 12.362 36.3061 11.774C36.1621 11.186 35.9341 10.664 35.6221 10.208C35.3101 9.74 34.9021 9.368 34.3981 9.092C33.9061 8.816 33.3181 8.678 32.6341 8.678ZM32.6341 6.842C33.5941 6.842 34.4521 7.022 35.2081 7.382C35.9761 7.742 36.6241 8.228 37.1521 8.84C37.6801 9.452 38.0821 10.166 38.3581 10.982C38.6461 11.798 38.7901 12.662 38.7901 13.574C38.7901 14.498 38.6461 15.368 38.3581 16.184C38.0821 17 37.6801 17.714 37.1521 18.326C36.6241 18.938 35.9761 19.424 35.2081 19.784C34.4521 20.132 33.5941 20.306 32.6341 20.306C31.6741 20.306 30.8101 20.132 30.0421 19.784C29.2861 19.424 28.6441 18.938 28.1161 18.326C27.5881 17.714 27.1801 17 26.8921 16.184C26.6161 15.368 26.4781 14.498 26.4781 13.574C26.4781 12.662 26.6161 11.798 26.8921 10.982C27.1801 10.166 27.5881 9.452 28.1161 8.84C28.6441 8.228 29.2861 7.742 30.0421 7.382C30.8101 7.022 31.6741 6.842 32.6341 6.842ZM30.0781 5.672V3.728H32.1301V5.672H30.0781ZM35.2261 3.728V5.672H33.1741V3.728H35.2261ZM41.6479 7.148H44.0239L49.8919 16.616H49.9279V7.148H52.0699V20H49.6939L43.8439 10.55H43.7899V20H41.6479V7.148ZM55.5742 7.148H57.8242V12.26H63.6742V7.148H65.9242V20H63.6742V14.204H57.8242V20H55.5742V7.148ZM69.5184 7.148H78.7704V9.092H71.7684V12.458H78.2484V14.294H71.7684V18.056H78.8964V20H69.5184V7.148ZM80.5323 7.148H90.9363V9.092H86.8503V20H84.6003V9.092H80.5323V7.148ZM104.708 8.678C104.024 8.678 103.43 8.816 102.926 9.092C102.434 9.368 102.032 9.74 101.72 10.208C101.408 10.664 101.174 11.186 101.018 11.774C100.874 12.362 100.802 12.962 100.802 13.574C100.802 14.186 100.874 14.786 101.018 15.374C101.174 15.962 101.408 16.49 101.72 16.958C102.032 17.414 102.434 17.78 102.926 18.056C103.43 18.332 104.024 18.47 104.708 18.47C105.392 18.47 105.98 18.332 106.472 18.056C106.976 17.78 107.384 17.414 107.696 16.958C108.008 16.49 108.236 15.962 108.38 15.374C108.536 14.786 108.614 14.186 108.614 13.574C108.614 12.962 108.536 12.362 108.38 11.774C108.236 11.186 108.008 10.664 107.696 10.208C107.384 9.74 106.976 9.368 106.472 9.092C105.98 8.816 105.392 8.678 104.708 8.678ZM104.708 6.842C105.668 6.842 106.526 7.022 107.282 7.382C108.05 7.742 108.698 8.228 109.226 8.84C109.754 9.452 110.156 10.166 110.432 10.982C110.72 11.798 110.864 12.662 110.864 13.574C110.864 14.498 110.72 15.368 110.432 16.184C110.156 17 109.754 17.714 109.226 18.326C108.698 18.938 108.05 19.424 107.282 19.784C106.526 20.132 105.668 20.306 104.708 20.306C103.748 20.306 102.884 20.132 102.116 19.784C101.36 19.424 100.718 18.938 100.19 18.326C99.662 17.714 99.254 17 98.966 16.184C98.69 15.368 98.552 14.498 98.552 13.574C98.552 12.662 98.69 11.798 98.966 10.982C99.254 10.166 99.662 9.452 100.19 8.84C100.718 8.228 101.36 7.742 102.116 7.382C102.884 7.022 103.748 6.842 104.708 6.842ZM122.488 11.234C122.392 10.862 122.26 10.52 122.092 10.208C121.924 9.896 121.708 9.626 121.444 9.398C121.18 9.17 120.868 8.996 120.508 8.876C120.16 8.744 119.752 8.678 119.284 8.678C118.6 8.678 118.006 8.816 117.502 9.092C117.01 9.368 116.608 9.74 116.296 10.208C115.984 10.664 115.75 11.186 115.594 11.774C115.45 12.362 115.378 12.962 115.378 13.574C115.378 14.186 115.45 14.786 115.594 15.374C115.75 15.962 115.984 16.49 116.296 16.958C116.608 17.414 117.01 17.78 117.502 18.056C118.006 18.332 118.6 18.47 119.284 18.47C119.788 18.47 120.232 18.386 120.616 18.218C121 18.038 121.33 17.798 121.606 17.498C121.882 17.186 122.098 16.826 122.254 16.418C122.41 16.01 122.512 15.572 122.56 15.104H124.756C124.708 15.872 124.54 16.574 124.252 17.21C123.976 17.846 123.598 18.398 123.118 18.866C122.638 19.322 122.074 19.676 121.426 19.928C120.778 20.18 120.064 20.306 119.284 20.306C118.324 20.306 117.46 20.132 116.692 19.784C115.936 19.424 115.294 18.938 114.766 18.326C114.238 17.714 113.83 17 113.542 16.184C113.266 15.368 113.128 14.498 113.128 13.574C113.128 12.662 113.266 11.798 113.542 10.982C113.83 10.166 114.238 9.452 114.766 8.84C115.294 8.228 115.936 7.742 116.692 7.382C117.46 7.022 118.324 6.842 119.284 6.842C120.004 6.842 120.682 6.944 121.318 7.148C121.954 7.34 122.512 7.628 122.992 8.012C123.484 8.384 123.88 8.84 124.18 9.38C124.48 9.92 124.666 10.538 124.738 11.234H122.488ZM127.648 7.148H129.898V12.26H135.748V7.148H137.998V20H135.748V14.204H129.898V20H127.648V7.148ZM147.448 7.148H149.698V12.26H155.548V7.148H157.798V20H155.548V14.204H149.698V20H147.448V7.148ZM164.83 7.148H167.224L172.174 20H169.762L168.556 16.598H163.426L162.22 20H159.898L164.83 7.148ZM164.038 14.888H167.962L166.036 9.362H165.982L164.038 14.888ZM163.444 5.672V3.728H165.496V5.672H163.444ZM168.592 3.728V5.672H166.54V3.728H168.592ZM174.298 7.148H176.548V18.056H183.082V20H174.298V7.148ZM187.01 15.716C187.01 16.208 187.094 16.628 187.262 16.976C187.43 17.324 187.664 17.612 187.964 17.84C188.264 18.056 188.606 18.218 188.99 18.326C189.386 18.422 189.812 18.47 190.268 18.47C190.76 18.47 191.18 18.416 191.528 18.308C191.876 18.188 192.158 18.038 192.374 17.858C192.59 17.678 192.746 17.474 192.842 17.246C192.938 17.006 192.986 16.766 192.986 16.526C192.986 16.034 192.872 15.674 192.644 15.446C192.428 15.206 192.188 15.038 191.924 14.942C191.468 14.774 190.934 14.618 190.322 14.474C189.722 14.318 188.978 14.12 188.09 13.88C187.538 13.736 187.076 13.55 186.704 13.322C186.344 13.082 186.056 12.818 185.84 12.53C185.624 12.242 185.468 11.936 185.372 11.612C185.288 11.288 185.246 10.958 185.246 10.622C185.246 9.974 185.378 9.416 185.642 8.948C185.918 8.468 186.278 8.072 186.722 7.76C187.166 7.448 187.67 7.22 188.234 7.076C188.798 6.92 189.368 6.842 189.944 6.842C190.616 6.842 191.246 6.932 191.834 7.112C192.434 7.28 192.956 7.538 193.4 7.886C193.856 8.234 194.216 8.666 194.48 9.182C194.744 9.686 194.876 10.274 194.876 10.946H192.626C192.566 10.118 192.284 9.536 191.78 9.2C191.276 8.852 190.634 8.678 189.854 8.678C189.59 8.678 189.32 8.708 189.044 8.768C188.768 8.816 188.516 8.906 188.288 9.038C188.06 9.158 187.868 9.326 187.712 9.542C187.568 9.758 187.496 10.028 187.496 10.352C187.496 10.808 187.634 11.168 187.91 11.432C188.198 11.684 188.57 11.876 189.026 12.008C189.074 12.02 189.26 12.074 189.584 12.17C189.92 12.254 190.292 12.35 190.7 12.458C191.108 12.566 191.504 12.674 191.888 12.782C192.284 12.878 192.566 12.95 192.734 12.998C193.154 13.13 193.52 13.31 193.832 13.538C194.144 13.766 194.402 14.03 194.606 14.33C194.822 14.618 194.978 14.93 195.074 15.266C195.182 15.602 195.236 15.938 195.236 16.274C195.236 16.994 195.086 17.612 194.786 18.128C194.498 18.632 194.114 19.046 193.634 19.37C193.154 19.694 192.608 19.928 191.996 20.072C191.384 20.228 190.76 20.306 190.124 20.306C189.392 20.306 188.702 20.216 188.054 20.036C187.406 19.856 186.842 19.58 186.362 19.208C185.882 18.836 185.498 18.362 185.21 17.786C184.922 17.198 184.772 16.508 184.76 15.716H187.01ZM201.544 7.148H203.938L208.888 20H206.476L205.27 16.598H200.14L198.934 20H196.612L201.544 7.148ZM200.752 14.888H204.676L202.75 9.362H202.696L200.752 14.888Z" fill="#1B3231"/>
<path d="M131.653 40.3047C131.018 40.3047 130.572 40.1354 130.317 39.7969C130.062 39.4583 129.934 39.0547 129.934 38.5859C129.934 38.3203 129.968 38.0469 130.036 37.7656C130.104 37.4792 130.192 37.2031 130.302 36.9375L130.684 36C130.726 35.901 130.77 35.7943 130.817 35.6797C130.864 35.5599 130.924 35.4193 130.997 35.2578L133.278 30.1875C133.341 30.0469 133.455 29.9245 133.622 29.8203C133.794 29.7161 133.971 29.6641 134.153 29.6641C134.393 29.6641 134.559 29.7109 134.653 29.8047C134.752 29.8984 134.802 30.013 134.802 30.1484C134.802 30.2526 134.776 30.3672 134.723 30.4922C134.671 30.612 134.614 30.724 134.552 30.8281C134.359 31.1979 134.171 31.5703 133.989 31.9453C133.807 32.3203 133.63 32.6979 133.458 33.0781C133.286 33.4583 133.109 33.8385 132.927 34.2188C132.744 34.599 132.557 34.974 132.364 35.3438C132.692 35.0833 133.065 34.8464 133.481 34.6328C133.898 34.4193 134.333 34.3125 134.786 34.3125C134.999 34.3125 135.213 34.3672 135.427 34.4766C135.645 34.5859 135.828 34.7448 135.973 34.9531C136.124 35.1615 136.2 35.4193 136.2 35.7266C136.2 35.8203 136.169 35.9896 136.106 36.2344C136.044 36.4792 135.96 36.7396 135.856 37.0156C135.757 37.2865 135.643 37.5182 135.512 37.7109C135.549 37.7682 135.596 37.8047 135.653 37.8203C135.71 37.8307 135.776 37.8359 135.848 37.8359C136.161 37.8359 136.468 37.7865 136.77 37.6875C137.078 37.5833 137.359 37.4635 137.614 37.3281C137.874 37.1927 138.091 37.0729 138.262 36.9688C138.325 36.901 138.393 36.8672 138.466 36.8672C138.554 36.8672 138.63 36.9062 138.692 36.9844C138.76 37.0625 138.794 37.1641 138.794 37.2891C138.794 37.4089 138.768 37.5286 138.716 37.6484C138.669 37.763 138.58 37.8906 138.45 38.0312C137.992 38.3021 137.518 38.5417 137.028 38.75C136.539 38.9531 136.031 39.0547 135.505 39.0547C135.161 39.0547 134.885 38.9583 134.677 38.7656C134.234 39.2969 133.762 39.6875 133.262 39.9375C132.768 40.1823 132.231 40.3047 131.653 40.3047ZM132.231 38.8281C132.637 38.8281 133.023 38.7057 133.387 38.4609C133.752 38.2109 134.046 37.8984 134.27 37.5234C134.499 37.1432 134.614 36.7578 134.614 36.3672C134.614 36.2109 134.58 36.0469 134.512 35.875C134.445 35.7031 134.281 35.6172 134.02 35.6172C133.624 35.6172 133.234 35.7422 132.848 35.9922C132.463 36.237 132.145 36.5495 131.895 36.9297C131.645 37.3047 131.52 37.6901 131.52 38.0859C131.52 38.263 131.562 38.4323 131.645 38.5938C131.734 38.75 131.929 38.8281 132.231 38.8281ZM139.016 44.6328C138.807 44.6328 138.638 44.5625 138.508 44.4219C138.378 44.2865 138.312 44.1016 138.312 43.8672C138.312 43.6484 138.339 43.4297 138.391 43.2109C138.448 42.9974 138.547 42.7604 138.687 42.5C138.823 42.2396 139.003 41.9479 139.227 41.625C139.456 41.3073 139.742 40.9323 140.086 40.5L141.648 37.3359C140.867 38.263 140.159 38.9714 139.523 39.4609C138.888 39.9505 138.294 40.1953 137.742 40.1953C137.565 40.1953 137.414 40.1536 137.289 40.0703C137.164 39.9922 137.102 39.8594 137.102 39.6719C137.102 39.4115 137.164 39.1172 137.289 38.7891C137.393 38.5339 137.503 38.2969 137.617 38.0781C137.737 37.8542 137.859 37.6198 137.984 37.375C138.115 37.1146 138.266 36.7943 138.437 36.4141C138.609 36.0339 138.799 35.5781 139.008 35.0469C139.112 34.8438 139.247 34.6979 139.414 34.6094C139.581 34.5156 139.742 34.4688 139.898 34.4688C140.06 34.4688 140.195 34.5078 140.305 34.5859C140.419 34.6589 140.477 34.7578 140.477 34.8828C140.477 34.9505 140.466 35.0052 140.445 35.0469L139.016 38.0234C138.943 38.1797 138.906 38.2995 138.906 38.3828C138.906 38.4609 138.937 38.5 139 38.5C139.057 38.5 139.13 38.4714 139.219 38.4141C139.307 38.3568 139.391 38.2917 139.469 38.2188L142.695 35.0469C142.956 34.8385 143.156 34.7109 143.297 34.6641C143.437 34.6172 143.576 34.5938 143.711 34.5938C143.82 34.5938 143.898 34.6354 143.945 34.7188C143.992 34.7969 144.016 34.8802 144.016 34.9688C144.016 35.0365 144.003 35.1042 143.977 35.1719L142.227 38.8203C142.477 38.6328 142.763 38.4505 143.086 38.2734C143.409 38.0911 143.724 37.9271 144.031 37.7812C144.339 37.6354 144.599 37.5208 144.812 37.4375C145.026 37.349 145.146 37.3047 145.172 37.3047C145.302 37.3047 145.417 37.3542 145.516 37.4531C145.615 37.5521 145.664 37.6771 145.664 37.8281C145.664 37.9635 145.612 38.1068 145.508 38.2578C145.409 38.4089 145.232 38.5547 144.977 38.6953C144.648 38.8776 144.336 39.0469 144.039 39.2031C143.747 39.3594 143.503 39.4922 143.305 39.6016L142.75 39.9141C142.5 40.0599 142.268 40.2135 142.055 40.375C141.846 40.5365 141.635 40.7161 141.422 40.9141C141.193 41.513 140.977 42.0417 140.773 42.5C140.576 42.9583 140.453 43.2318 140.406 43.3203C139.984 44.1953 139.521 44.6328 139.016 44.6328ZM154.319 40.2969C153.626 40.2969 152.998 40.1745 152.436 39.9297C151.873 39.6849 151.423 39.3203 151.084 38.8359C150.751 38.3516 150.584 37.75 150.584 37.0312C150.584 36.5208 150.694 36.0677 150.912 35.6719C151.131 35.276 151.431 34.9297 151.811 34.6328C152.186 34.3359 152.623 34.0911 153.123 33.8984C153.629 33.7057 154.165 33.5729 154.733 33.5C154.295 33.1719 153.988 32.8516 153.811 32.5391C153.634 32.2214 153.545 31.9089 153.545 31.6016C153.545 31.1536 153.709 30.7526 154.037 30.3984C154.366 30.0391 154.79 29.7344 155.311 29.4844C155.806 29.2552 156.371 29.0729 157.006 28.9375C157.642 28.7969 158.29 28.7266 158.952 28.7266C159.53 28.7266 160.061 28.8099 160.545 28.9766C161.03 29.138 161.428 29.3854 161.741 29.7188C162.053 30.0521 162.235 30.4792 162.287 31C162.287 31.2292 162.178 31.4505 161.959 31.6641C161.746 31.8724 161.441 31.9766 161.045 31.9766C160.821 31.9766 160.683 31.9271 160.631 31.8281C160.584 31.724 160.561 31.5964 160.561 31.4453C160.561 30.9609 160.439 30.6068 160.194 30.3828C159.949 30.1589 159.509 30.0469 158.873 30.0469C158.493 30.0469 158.097 30.0885 157.686 30.1719C157.274 30.25 156.897 30.3646 156.553 30.5156C156.209 30.6719 155.926 30.8568 155.702 31.0703C155.483 31.2839 155.373 31.5234 155.373 31.7891C155.373 32.2057 155.496 32.5443 155.741 32.8047C155.985 33.0651 156.301 33.2552 156.686 33.375C157.077 33.4948 157.491 33.5547 157.928 33.5547C158.095 33.5547 158.246 33.5938 158.381 33.6719C158.517 33.75 158.584 33.8438 158.584 33.9531C158.584 34.1458 158.353 34.3099 157.889 34.4453C157.634 34.5182 157.293 34.5781 156.866 34.625C156.444 34.6719 155.91 34.6953 155.264 34.6953C154.806 34.6953 154.355 34.7839 153.912 34.9609C153.475 35.138 153.11 35.4115 152.819 35.7812C152.532 36.151 152.389 36.625 152.389 37.2031C152.389 37.4688 152.467 37.7396 152.623 38.0156C152.78 38.2917 153.037 38.5234 153.397 38.7109C153.756 38.8984 154.238 38.9922 154.842 38.9922C155.29 38.9922 155.722 38.9531 156.139 38.875C156.556 38.7917 156.915 38.6875 157.217 38.5625C157.514 38.4479 157.764 38.3177 157.967 38.1719C158.165 38.026 158.345 37.8932 158.506 37.7734C158.673 37.6536 158.85 37.5521 159.037 37.4688C159.22 37.3906 159.444 37.3516 159.709 37.3516C160.178 37.3516 160.412 37.5573 160.412 37.9688C160.412 38.1719 160.251 38.4089 159.928 38.6797C159.61 38.9505 159.181 39.2031 158.639 39.4375C158.082 39.6771 157.428 39.8802 156.678 40.0469C155.928 40.2135 155.142 40.2969 154.319 40.2969ZM160.853 40.1953C160.426 40.1953 160.132 40.0885 159.97 39.875C159.814 39.6615 159.736 39.401 159.736 39.0938C159.736 38.8385 159.772 38.5781 159.845 38.3125C159.923 38.0417 160.015 37.7943 160.119 37.5703C160.301 37.1641 160.486 36.7604 160.673 36.3594C160.861 35.9583 161.033 35.5911 161.189 35.2578L163.556 30.2188C163.676 29.9583 163.856 29.7891 164.095 29.7109C164.335 29.6328 164.554 29.6406 164.752 29.7344C164.955 29.8229 165.056 29.987 165.056 30.2266C165.056 30.3203 165.033 30.4193 164.986 30.5234C164.944 30.6276 164.89 30.7396 164.822 30.8594C164.634 31.2135 164.395 31.6797 164.103 32.2578C163.817 32.8359 163.499 33.487 163.15 34.2109C162.77 35.0078 162.449 35.6771 162.189 36.2188C161.934 36.7552 161.694 37.263 161.47 37.7422C161.413 37.862 161.356 38.0026 161.298 38.1641C161.246 38.3203 161.22 38.4609 161.22 38.5859C161.22 38.7578 161.296 38.8438 161.447 38.8438C161.614 38.8438 161.835 38.776 162.111 38.6406C162.392 38.5 162.684 38.3255 162.986 38.1172C163.293 37.9141 163.59 37.7031 163.877 37.4844C164.163 37.2604 164.429 37.0443 164.673 36.8359C164.757 36.7682 164.856 36.7344 164.97 36.7344C165.21 36.7344 165.33 36.8672 165.33 37.1328C165.33 37.2422 165.293 37.3646 165.22 37.5C165.147 37.6354 165.02 37.7682 164.837 37.8984C164.504 38.2057 164.168 38.4974 163.83 38.7734C163.496 39.0443 163.16 39.2865 162.822 39.5C162.489 39.7083 162.155 39.875 161.822 40C161.489 40.1302 161.166 40.1953 160.853 40.1953ZM167.864 33.7969C167.541 33.7969 167.315 33.7474 167.184 33.6484C167.054 33.5443 166.981 33.4089 166.966 33.2422C166.966 32.9974 167.054 32.7578 167.231 32.5234C167.414 32.2839 167.682 32.1641 168.036 32.1641C168.338 32.1641 168.549 32.224 168.669 32.3438C168.789 32.4583 168.848 32.6042 168.848 32.7812C168.848 32.9792 168.77 33.1979 168.614 33.4375C168.463 33.6771 168.213 33.7969 167.864 33.7969ZM165.95 40.1953C165.528 40.1953 165.195 40.0885 164.95 39.875C164.71 39.6562 164.591 39.3177 164.591 38.8594C164.591 38.5417 164.648 38.2266 164.762 37.9141C164.882 37.5964 165.012 37.2995 165.153 37.0234C165.299 36.7422 165.414 36.4974 165.497 36.2891C165.523 36.2214 165.567 36.1172 165.63 35.9766C165.697 35.8359 165.768 35.6927 165.841 35.5469L166.106 35C166.195 34.8542 166.296 34.75 166.411 34.6875C166.526 34.625 166.643 34.5938 166.762 34.5938C166.96 34.5938 167.13 34.6589 167.27 34.7891C167.416 34.9141 167.489 35.0755 167.489 35.2734C167.484 35.3203 167.476 35.3672 167.466 35.4141C167.46 35.4609 167.445 35.5078 167.419 35.5547C167.304 35.763 167.205 35.9583 167.122 36.1406C167.039 36.3177 166.953 36.4974 166.864 36.6797C166.791 36.8307 166.7 37.0156 166.591 37.2344C166.481 37.4531 166.385 37.6745 166.302 37.8984C166.218 38.1172 166.177 38.3125 166.177 38.4844C166.177 38.625 166.21 38.7188 166.278 38.7656C166.351 38.8073 166.453 38.8281 166.583 38.8281C166.791 38.8281 167.02 38.763 167.27 38.6328C167.526 38.5026 167.768 38.3411 167.997 38.1484C168.236 37.9557 168.458 37.7604 168.661 37.5625C168.864 37.3594 169.015 37.1953 169.114 37.0703C169.213 36.9714 169.317 36.9219 169.427 36.9219C169.52 36.9219 169.596 36.9635 169.653 37.0469C169.716 37.1302 169.747 37.237 169.747 37.3672C169.747 37.487 169.716 37.6146 169.653 37.75C169.596 37.8854 169.499 38.013 169.364 38.1328C169.02 38.4818 168.661 38.8151 168.286 39.1328C167.911 39.4453 167.526 39.7005 167.13 39.8984C166.739 40.0964 166.346 40.1953 165.95 40.1953ZM170.977 40.1953C170.43 40.1953 169.932 40.0729 169.484 39.8281C169.036 39.5781 168.75 39.1849 168.625 38.6484C168.615 38.5964 168.609 38.5625 168.609 38.5469C168.609 38.4062 168.659 38.2865 168.758 38.1875C168.857 38.0833 168.966 38.0312 169.086 38.0312C169.143 38.0312 169.206 38.0417 169.273 38.0625C169.346 38.0833 169.401 38.1302 169.437 38.2031C169.573 38.4479 169.805 38.6458 170.133 38.7969C170.466 38.9427 170.792 39.0156 171.109 39.0156C171.448 39.0156 171.742 38.9505 171.992 38.8203C172.247 38.6901 172.375 38.4766 172.375 38.1797C172.375 37.8151 172.271 37.4922 172.062 37.2109C171.859 36.9297 171.602 36.6771 171.289 36.4531C170.982 36.224 170.672 36.013 170.359 35.8203C170.333 35.8047 170.294 35.7604 170.242 35.6875C170.19 35.6094 170.164 35.5312 170.164 35.4531C170.164 35.3906 170.18 35.3411 170.211 35.3047C170.378 35.0807 170.591 34.862 170.852 34.6484C171.112 34.4349 171.398 34.3281 171.711 34.3281C171.94 34.3281 172.128 34.3854 172.273 34.5C172.424 34.6094 172.5 34.7188 172.5 34.8281C172.5 34.974 172.432 35.112 172.297 35.2422C172.161 35.3672 172.021 35.487 171.875 35.6016C172.495 35.9245 172.987 36.3359 173.352 36.8359C173.716 37.3307 173.898 37.8151 173.898 38.2891C173.898 38.6901 173.753 39.0339 173.461 39.3203C173.174 39.6016 172.807 39.8177 172.359 39.9688C171.917 40.1198 171.456 40.1953 170.977 40.1953ZM176.433 40.1953C176.256 40.1953 176.045 40.1458 175.8 40.0469C175.555 39.9479 175.339 39.7839 175.152 39.5547C174.969 39.3255 174.878 39.0182 174.878 38.6328C174.878 38.3099 174.951 37.9062 175.097 37.4219C175.243 36.9375 175.472 36.4609 175.784 35.9922C176.097 35.513 176.495 35.1146 176.98 34.7969C177.469 34.4792 178.034 34.3203 178.675 34.3203C178.904 34.3203 179.105 34.349 179.277 34.4062C179.448 34.4635 179.594 34.526 179.714 34.5938C179.782 34.6354 179.844 34.6797 179.902 34.7266C179.964 34.7682 180.021 34.8151 180.073 34.8672L180.347 34.7344C180.425 34.6979 180.506 34.6667 180.589 34.6406C180.678 34.6094 180.753 34.5938 180.816 34.5938C181.014 34.5938 181.175 34.6484 181.3 34.7578C181.425 34.8672 181.487 34.987 181.487 35.1172C181.487 35.1589 181.485 35.1875 181.48 35.2031C181.443 35.349 181.376 35.5495 181.277 35.8047C181.183 36.0599 181.081 36.3438 180.972 36.6562C180.862 36.9583 180.769 37.25 180.691 37.5312C180.618 37.8125 180.581 38.0443 180.581 38.2266C180.581 38.3828 180.607 38.513 180.659 38.6172C180.711 38.7161 180.8 38.7656 180.925 38.7656C181.076 38.7656 181.279 38.6797 181.534 38.5078C181.79 38.3307 182.053 38.1224 182.323 37.8828C182.469 37.7526 182.62 37.6146 182.777 37.4688C182.933 37.3177 183.092 37.1589 183.253 36.9922C183.336 36.9245 183.417 36.8906 183.495 36.8906C183.599 36.8906 183.685 36.9427 183.753 37.0469C183.826 37.1458 183.862 37.2578 183.862 37.3828C183.862 37.5286 183.813 37.651 183.714 37.75C183.506 37.9427 183.292 38.1484 183.073 38.3672C182.855 38.5859 182.553 38.8542 182.167 39.1719C181.823 39.4531 181.469 39.6953 181.105 39.8984C180.74 40.0964 180.412 40.1953 180.12 40.1953C179.756 40.1953 179.49 40.0547 179.323 39.7734C179.157 39.487 179.073 39.1823 179.073 38.8594C179.073 38.625 179.107 38.4167 179.175 38.2344C178.961 38.5208 178.709 38.8177 178.417 39.125C178.126 39.4271 177.81 39.6823 177.472 39.8906C177.133 40.0938 176.787 40.1953 176.433 40.1953ZM177.058 38.8203C177.224 38.8203 177.433 38.7135 177.683 38.5C177.938 38.2865 178.183 38.0365 178.417 37.75C178.678 37.4375 178.883 37.1536 179.034 36.8984C179.185 36.6432 179.261 36.4714 179.261 36.3828C179.261 36.1849 179.146 36.0286 178.917 35.9141C178.688 35.7943 178.482 35.7344 178.3 35.7344C177.977 35.7344 177.67 35.8385 177.378 36.0469C177.092 36.2552 176.857 36.5234 176.675 36.8516C176.493 37.1745 176.402 37.5104 176.402 37.8594C176.402 38.0625 176.438 38.2734 176.511 38.4922C176.589 38.7109 176.771 38.8203 177.058 38.8203ZM185.256 40.3047C184.621 40.3047 184.176 40.1354 183.92 39.7969C183.665 39.4583 183.537 39.0547 183.537 38.5859C183.537 38.3203 183.571 38.0469 183.639 37.7656C183.707 37.4792 183.795 37.2031 183.905 36.9375L184.287 36C184.329 35.901 184.373 35.7943 184.42 35.6797C184.467 35.5599 184.527 35.4193 184.6 35.2578L186.881 30.1875C186.944 30.0469 187.058 29.9245 187.225 29.8203C187.397 29.7161 187.574 29.6641 187.756 29.6641C187.996 29.6641 188.162 29.7109 188.256 29.8047C188.355 29.8984 188.405 30.013 188.405 30.1484C188.405 30.2526 188.379 30.3672 188.327 30.4922C188.274 30.612 188.217 30.724 188.155 30.8281C187.962 31.1979 187.774 31.5703 187.592 31.9453C187.41 32.3203 187.233 32.6979 187.061 33.0781C186.889 33.4583 186.712 33.8385 186.53 34.2188C186.347 34.599 186.16 34.974 185.967 35.3438C186.295 35.0833 186.668 34.8464 187.084 34.6328C187.501 34.4193 187.936 34.3125 188.389 34.3125C188.603 34.3125 188.816 34.3672 189.03 34.4766C189.248 34.5859 189.431 34.7448 189.577 34.9531C189.728 35.1615 189.803 35.4193 189.803 35.7266C189.803 35.8203 189.772 35.9896 189.709 36.2344C189.647 36.4792 189.564 36.7396 189.459 37.0156C189.36 37.2865 189.246 37.5182 189.116 37.7109C189.152 37.7682 189.199 37.8047 189.256 37.8203C189.314 37.8307 189.379 37.8359 189.452 37.8359C189.764 37.8359 190.071 37.7865 190.373 37.6875C190.681 37.5833 190.962 37.4635 191.217 37.3281C191.478 37.1927 191.694 37.0729 191.866 36.9688C191.928 36.901 191.996 36.8672 192.069 36.8672C192.157 36.8672 192.233 36.9062 192.295 36.9844C192.363 37.0625 192.397 37.1641 192.397 37.2891C192.397 37.4089 192.371 37.5286 192.319 37.6484C192.272 37.763 192.183 37.8906 192.053 38.0312C191.595 38.3021 191.121 38.5417 190.631 38.75C190.142 38.9531 189.634 39.0547 189.108 39.0547C188.764 39.0547 188.488 38.9583 188.28 38.7656C187.837 39.2969 187.366 39.6875 186.866 39.9375C186.371 40.1823 185.834 40.3047 185.256 40.3047ZM185.834 38.8281C186.241 38.8281 186.626 38.7057 186.991 38.4609C187.355 38.2109 187.649 37.8984 187.873 37.5234C188.103 37.1432 188.217 36.7578 188.217 36.3672C188.217 36.2109 188.183 36.0469 188.116 35.875C188.048 35.7031 187.884 35.6172 187.623 35.6172C187.228 35.6172 186.837 35.7422 186.452 35.9922C186.066 36.237 185.748 36.5495 185.498 36.9297C185.248 37.3047 185.123 37.6901 185.123 38.0859C185.123 38.263 185.165 38.4323 185.248 38.5938C185.337 38.75 185.532 38.8281 185.834 38.8281ZM192.955 40.1953C192.538 40.1953 192.181 40.0938 191.884 39.8906C191.593 39.6823 191.369 39.4115 191.212 39.0781C191.061 38.7396 190.986 38.3776 190.986 37.9922C190.986 37.6536 191.082 37.276 191.275 36.8594C191.473 36.4375 191.754 36.0339 192.119 35.6484C192.483 35.263 192.918 34.9453 193.423 34.6953C193.934 34.4401 194.489 34.3125 195.087 34.3125C195.52 34.3125 195.843 34.4167 196.056 34.625C196.27 34.8333 196.377 35.1224 196.377 35.4922C196.377 35.7109 196.319 35.9401 196.205 36.1797C196.09 36.4193 195.892 36.6615 195.611 36.9062C195.33 37.1562 194.952 37.4115 194.478 37.6719C194.009 37.9271 193.421 38.1849 192.712 38.4453C192.77 38.7682 193.03 38.9297 193.494 38.9297C193.853 38.9297 194.241 38.8568 194.658 38.7109C195.074 38.5599 195.476 38.388 195.861 38.1953C196.246 38.0078 196.577 37.8307 196.853 37.6641C197.129 37.4974 197.293 37.4036 197.345 37.3828C197.392 37.3516 197.434 37.3333 197.47 37.3281C197.512 37.3229 197.548 37.3203 197.58 37.3203C197.705 37.3203 197.791 37.3698 197.837 37.4688C197.89 37.5625 197.916 37.6406 197.916 37.7031C197.916 37.75 197.91 37.8073 197.9 37.875C197.89 37.9375 197.851 38.0104 197.783 38.0938C197.715 38.1615 197.517 38.3099 197.189 38.5391C196.861 38.7682 196.509 38.9896 196.134 39.2031C195.676 39.4583 195.166 39.6875 194.603 39.8906C194.041 40.0938 193.491 40.1953 192.955 40.1953ZM192.595 37.5469C192.934 37.3698 193.278 37.1641 193.627 36.9297C193.981 36.6901 194.249 36.5156 194.431 36.4062C194.676 36.25 194.837 36.112 194.916 35.9922C195.004 35.862 195.048 35.7526 195.048 35.6641C195.048 35.5859 195.022 35.5234 194.97 35.4766C194.923 35.4297 194.869 35.401 194.806 35.3906L194.736 35.3828H194.666C194.379 35.3828 194.114 35.4661 193.869 35.6328C193.629 35.7943 193.426 35.9974 193.259 36.2422C193.082 36.4974 192.939 36.737 192.83 36.9609C192.726 37.1849 192.647 37.3802 192.595 37.5469ZM198.505 40.1953C198.093 40.1953 197.807 40.0938 197.645 39.8906C197.484 39.6875 197.403 39.4375 197.403 39.1406C197.403 38.8802 197.447 38.6094 197.536 38.3281C197.624 38.0469 197.723 37.7943 197.833 37.5703L198.747 35.6953H198.411C198.119 35.6953 197.919 35.6484 197.809 35.5547C197.7 35.4609 197.645 35.3542 197.645 35.2344C197.645 35.1146 197.713 34.9792 197.848 34.8281C197.984 34.6719 198.169 34.5938 198.403 34.5938H199.247L200.895 31.3203C200.999 31.1224 201.127 30.9818 201.278 30.8984C201.434 30.8099 201.596 30.7656 201.762 30.7656C201.919 30.7656 202.062 30.8073 202.192 30.8906C202.322 30.974 202.387 31.112 202.387 31.3047C202.387 31.4036 202.364 31.5052 202.317 31.6094C202.276 31.7083 202.218 31.8255 202.145 31.9609C202.062 32.1172 201.95 32.3281 201.809 32.5938C201.669 32.8542 201.494 33.1693 201.286 33.5391L200.723 34.5938H203.27C203.52 34.5938 203.723 34.6276 203.88 34.6953C204.041 34.7578 204.122 34.901 204.122 35.125C204.122 35.2396 204.08 35.3516 203.997 35.4609C203.914 35.5703 203.734 35.6354 203.458 35.6562H200.208L199.661 36.75L199.177 37.7422C199.114 37.8672 199.052 38.013 198.989 38.1797C198.932 38.3411 198.903 38.4844 198.903 38.6094C198.903 38.7656 198.976 38.8438 199.122 38.8438C199.289 38.8438 199.512 38.7734 199.794 38.6328C200.075 38.4922 200.372 38.3203 200.684 38.1172C201.002 37.9141 201.307 37.7031 201.598 37.4844C201.89 37.2604 202.158 37.0443 202.403 36.8359C202.492 36.7786 202.57 36.75 202.637 36.75C202.752 36.75 202.838 36.8125 202.895 36.9375C202.953 37.0625 202.958 37.2135 202.911 37.3906C202.869 37.5677 202.747 37.737 202.544 37.8984C202.205 38.2057 201.861 38.4974 201.512 38.7734C201.169 39.0443 200.828 39.2865 200.489 39.5C200.145 39.7083 199.807 39.875 199.473 40C199.14 40.1302 198.817 40.1953 198.505 40.1953ZM202.359 40.1953C202.177 40.1953 202.036 40.1406 201.938 40.0312C201.839 39.9271 201.789 39.7943 201.789 39.6328C201.789 39.4141 201.878 39.125 202.055 38.7656C202.227 38.4062 202.422 38.0078 202.641 37.5703C202.859 37.1276 203.073 36.7005 203.281 36.2891C203.495 35.8776 203.669 35.5339 203.805 35.2578L206.383 30.1875C206.445 30.0521 206.568 29.9323 206.75 29.8281C206.932 29.7188 207.115 29.6641 207.297 29.6641C207.526 29.6641 207.685 29.7083 207.773 29.7969C207.862 29.8802 207.906 29.9844 207.906 30.1094C207.906 30.224 207.878 30.3464 207.82 30.4766C207.763 30.6016 207.698 30.7188 207.625 30.8281C207.198 31.5625 206.773 32.349 206.352 33.1875C205.93 34.026 205.487 34.8307 205.023 35.6016C205.221 35.4089 205.435 35.2161 205.664 35.0234C205.893 34.8255 206.151 34.6589 206.438 34.5234C206.724 34.388 207.052 34.3203 207.422 34.3203C207.766 34.3203 208.06 34.388 208.305 34.5234C208.549 34.6589 208.672 34.9036 208.672 35.2578C208.672 35.5911 208.599 35.8958 208.453 36.1719C208.307 36.4479 208.135 36.7083 207.938 36.9531C207.745 37.1927 207.565 37.4401 207.398 37.6953C207.232 37.9505 207.133 38.2292 207.102 38.5312V38.5625L207.094 38.5938C207.094 38.6979 207.128 38.763 207.195 38.7891C207.268 38.8151 207.359 38.8281 207.469 38.8281C207.682 38.8281 207.911 38.7708 208.156 38.6562C208.406 38.5365 208.656 38.3906 208.906 38.2188C209.151 38.0469 209.378 37.8698 209.586 37.6875C209.799 37.5052 209.971 37.3516 210.102 37.2266C210.19 37.1432 210.289 37.1016 210.398 37.1016C210.492 37.1016 210.57 37.138 210.633 37.2109C210.701 37.2786 210.734 37.3724 210.734 37.4922C210.734 37.6016 210.695 37.7266 210.617 37.8672C210.544 38.0078 210.417 38.1484 210.234 38.2891C209.859 38.612 209.471 38.9193 209.07 39.2109C208.674 39.5026 208.273 39.7396 207.867 39.9219C207.466 40.1042 207.07 40.1953 206.68 40.1953C206.31 40.1953 206.013 40.112 205.789 39.9453C205.565 39.7734 205.453 39.5052 205.453 39.1406C205.453 38.7812 205.534 38.4375 205.695 38.1094C205.862 37.7812 206.047 37.4766 206.25 37.1953C206.458 36.9141 206.625 36.6667 206.75 36.4531C206.812 36.3646 206.859 36.2839 206.891 36.2109C206.927 36.1328 206.945 36.0495 206.945 35.9609C206.945 35.7839 206.859 35.6953 206.688 35.6953C206.281 35.6953 205.914 35.8229 205.586 36.0781C205.263 36.3281 204.969 36.638 204.703 37.0078C204.443 37.3724 204.203 37.7266 203.984 38.0703C203.88 38.2318 203.771 38.4297 203.656 38.6641C203.542 38.8984 203.414 39.138 203.273 39.3828C203.143 39.612 203 39.8047 202.844 39.9609C202.688 40.1172 202.526 40.1953 202.359 40.1953Z" fill="#F9F0E8"/>
</svg>
