<svg width="217" height="45" viewBox="0 0 217 45" fill="none" xmlns="http://www.w3.org/2000/svg">
<path d="M11.3027 16.4316C11.3027 17.6445 10.8516 18.5732 9.94922 19.2178C9.05273 19.8564 7.73438 20.1758 5.99414 20.1758C2.85938 20.1758 1.03418 19.042 0.518555 16.7744L3.02344 16.3613C3.19336 17.0176 3.52441 17.4951 4.0166 17.7939C4.50879 18.0869 5.19141 18.2334 6.06445 18.2334C6.97266 18.2334 7.65234 18.0957 8.10352 17.8203C8.55469 17.5449 8.78027 17.1318 8.78027 16.5811C8.78027 16.2295 8.67773 15.9395 8.47266 15.7109C8.26758 15.4824 7.97461 15.292 7.59375 15.1396C7.40625 15.0635 7.13086 14.9814 6.76758 14.8936C6.4043 14.7998 5.95312 14.6973 5.41406 14.5859C4.79297 14.4395 4.30664 14.3164 3.95508 14.2168C3.60352 14.1113 3.32227 14.0117 3.11133 13.918C2.90039 13.8184 2.69531 13.71 2.49609 13.5928C2.05664 13.3291 1.71387 12.9775 1.46777 12.5381C1.22168 12.0986 1.09863 11.5508 1.09863 10.8945C1.09863 9.77539 1.51758 8.91992 2.35547 8.32812C3.19922 7.73047 4.42383 7.43164 6.0293 7.43164C7.56445 7.43164 8.71582 7.67187 9.4834 8.15234C10.2568 8.63281 10.7549 9.42676 10.9775 10.5342L8.46387 10.877C8.33496 10.3438 8.07129 9.94238 7.67285 9.67285C7.28027 9.40332 6.71484 9.26855 5.97656 9.26855C5.19141 9.26855 4.60254 9.3916 4.20996 9.6377C3.81738 9.88379 3.62109 10.2529 3.62109 10.7451C3.62109 11.0674 3.70312 11.3311 3.86719 11.5361C4.03711 11.7412 4.28613 11.917 4.61426 12.0635C4.9248 12.2041 5.58984 12.3828 6.60938 12.5996C7.20117 12.7285 7.71094 12.8516 8.13867 12.9688C8.56641 13.0801 8.90918 13.1885 9.16699 13.2939C9.4248 13.4053 9.65332 13.5225 9.85254 13.6455C10.0576 13.7686 10.2334 13.9004 10.3799 14.041C10.6787 14.3281 10.9072 14.6709 11.0654 15.0693C11.2236 15.4619 11.3027 15.916 11.3027 16.4316ZM16.7027 15.4824V20H14.11V7.61621H16.7027V13.2324L22.2838 7.61621H25.3072L20.0162 12.8545L25.7379 20H22.6793L18.232 14.3135L16.7027 15.4824ZM40.0588 13.751C40.0588 15.04 39.798 16.168 39.2766 17.1348C38.7609 18.0957 38.0314 18.8428 37.0881 19.376C36.1506 19.9092 35.049 20.1758 33.7834 20.1758C32.4885 20.1758 31.3752 19.918 30.4436 19.4023C29.5119 18.8809 28.7971 18.1396 28.299 17.1787C27.801 16.2178 27.552 15.0752 27.552 13.751C27.552 12.4268 27.798 11.293 28.2902 10.3496C28.7883 9.40625 29.5031 8.68555 30.4348 8.1875C31.3723 7.68359 32.4943 7.43164 33.801 7.43164C35.1135 7.43164 36.2355 7.68652 37.1672 8.19629C38.0988 8.7002 38.8137 9.42383 39.3117 10.3672C39.8098 11.3105 40.0588 12.4385 40.0588 13.751ZM37.4133 13.751C37.4133 12.415 37.0969 11.3691 36.4641 10.6133C35.8312 9.85156 34.9436 9.4707 33.801 9.4707C32.6408 9.4707 31.7443 9.84863 31.1115 10.6045C30.4787 11.3545 30.1623 12.4033 30.1623 13.751C30.1623 14.6533 30.3088 15.4326 30.6018 16.0889C30.8947 16.7451 31.3107 17.252 31.8498 17.6094C32.3947 17.9609 33.0393 18.1367 33.7834 18.1367C34.9436 18.1367 35.8371 17.7559 36.4641 16.9941C37.0969 16.2324 37.4133 15.1514 37.4133 13.751ZM36.6574 4.62793V6.55273H34.926V4.62793H36.6574ZM32.6408 4.62793V6.55273H30.9357V4.62793H32.6408ZM45.2303 12.6963V20H42.9275V7.61621H45.8895L51.365 17.2314C51.2596 16.3408 51.2068 15.5352 51.2068 14.8145V7.61621H53.5096V20H50.4686L45.0721 10.4639C45.1248 10.9268 45.1629 11.3457 45.1863 11.7207C45.2156 12.0898 45.2303 12.415 45.2303 12.6963ZM59.4281 14.6914V20H56.8354V7.61621H59.4281V12.5469H64.8246V7.61621H67.4174V20H64.8246V14.6914H59.4281ZM80.8418 17.9961V20H70.7432V7.61621H80.4814V9.62012H73.3359V12.7314H79.9453V14.7354H73.3359V17.9961H80.8418ZM89.2389 9.62012V20H86.6461V9.62012H82.6471V7.61621H93.2467V9.62012H89.2389ZM113.504 13.751C113.504 15.04 113.243 16.168 112.721 17.1348C112.206 18.0957 111.476 18.8428 110.533 19.376C109.596 19.9092 108.494 20.1758 107.228 20.1758C105.933 20.1758 104.82 19.918 103.888 19.4023C102.957 18.8809 102.242 18.1396 101.744 17.1787C101.246 16.2178 100.997 15.0752 100.997 13.751C100.997 12.4268 101.243 11.293 101.735 10.3496C102.233 9.40625 102.948 8.68555 103.88 8.1875C104.817 7.68359 105.939 7.43164 107.246 7.43164C108.558 7.43164 109.68 7.68652 110.612 8.19629C111.544 8.7002 112.259 9.42383 112.757 10.3672C113.255 11.3105 113.504 12.4385 113.504 13.751ZM110.858 13.751C110.858 12.415 110.542 11.3691 109.909 10.6133C109.276 9.85156 108.388 9.4707 107.246 9.4707C106.086 9.4707 105.189 9.84863 104.556 10.6045C103.924 11.3545 103.607 12.4033 103.607 13.751C103.607 14.6533 103.754 15.4326 104.047 16.0889C104.34 16.7451 104.756 17.252 105.295 17.6094C105.84 17.9609 106.484 18.1367 107.228 18.1367C108.388 18.1367 109.282 17.7559 109.909 16.9941C110.542 16.2324 110.858 15.1514 110.858 13.751ZM122.156 18.1367C123.726 18.1367 124.813 17.3516 125.416 15.7812L127.675 16.6338C127.189 17.8291 126.474 18.7197 125.531 19.3057C124.593 19.8857 123.468 20.1758 122.156 20.1758C120.831 20.1758 119.704 19.9238 118.772 19.4199C117.84 18.9102 117.128 18.1748 116.636 17.2139C116.15 16.2529 115.907 15.0986 115.907 13.751C115.907 12.3916 116.141 11.2432 116.61 10.3057C117.079 9.36816 117.77 8.65625 118.684 8.16992C119.598 7.67773 120.717 7.43164 122.041 7.43164C123.495 7.43164 124.678 7.72461 125.592 8.31055C126.506 8.89062 127.148 9.74609 127.517 10.877L125.232 11.501C125.038 10.8799 124.658 10.3877 124.089 10.0244C123.527 9.65527 122.862 9.4707 122.094 9.4707C120.922 9.4707 120.032 9.83398 119.422 10.5605C118.819 11.2871 118.517 12.3506 118.517 13.751C118.517 14.7002 118.655 15.5 118.93 16.1504C119.211 16.8008 119.621 17.2959 120.161 17.6357C120.705 17.9697 121.371 18.1367 122.156 18.1367ZM132.873 14.6914V20H130.28V7.61621H132.873V12.5469H138.27V7.61621H140.862V20H138.27V14.6914H132.873ZM152.691 14.6914V20H150.098V7.61621H152.691V12.5469H158.087V7.61621H160.68V20H158.087V14.6914H152.691ZM166.941 16.8359L165.843 20H163.25L167.767 7.61621H170.826L175.326 20H172.76L171.661 16.8359H166.941ZM169.297 9.52344C169.238 9.75781 169.156 10.0391 169.051 10.3672C168.945 10.6953 168.869 10.9268 168.822 11.0615L167.521 14.8848H171.081L169.745 10.9824C169.663 10.7422 169.587 10.499 169.516 10.2529C169.446 10.0068 169.373 9.76367 169.297 9.52344ZM172.162 4.62793V6.55273H170.43V4.62793H172.162ZM168.145 4.62793V6.55273H166.44V4.62793H168.145ZM187.151 17.9961V20H177.913V7.61621H180.506V17.9961H187.151ZM199.916 16.4316C199.916 17.6445 199.465 18.5732 198.562 19.2178C197.666 19.8564 196.348 20.1758 194.607 20.1758C191.473 20.1758 189.647 19.042 189.132 16.7744L191.637 16.3613C191.807 17.0176 192.138 17.4951 192.63 17.7939C193.122 18.0869 193.805 18.2334 194.678 18.2334C195.586 18.2334 196.266 18.0957 196.717 17.8203C197.168 17.5449 197.394 17.1318 197.394 16.5811C197.394 16.2295 197.291 15.9395 197.086 15.7109C196.881 15.4824 196.588 15.292 196.207 15.1396C196.02 15.0635 195.744 14.9814 195.381 14.8936C195.018 14.7998 194.566 14.6973 194.027 14.5859C193.406 14.4395 192.92 14.3164 192.568 14.2168C192.217 14.1113 191.936 14.0117 191.725 13.918C191.514 13.8184 191.309 13.71 191.109 13.5928C190.67 13.3291 190.327 12.9775 190.081 12.5381C189.835 12.0986 189.712 11.5508 189.712 10.8945C189.712 9.77539 190.131 8.91992 190.969 8.32812C191.812 7.73047 193.037 7.43164 194.643 7.43164C196.178 7.43164 197.329 7.67187 198.097 8.15234C198.87 8.63281 199.368 9.42676 199.591 10.5342L197.077 10.877C196.948 10.3438 196.685 9.94238 196.286 9.67285C195.894 9.40332 195.328 9.26855 194.59 9.26855C193.805 9.26855 193.216 9.3916 192.823 9.6377C192.431 9.88379 192.234 10.2529 192.234 10.7451C192.234 11.0674 192.316 11.3311 192.48 11.5361C192.65 11.7412 192.899 11.917 193.228 12.0635C193.538 12.2041 194.203 12.3828 195.223 12.5996C195.814 12.7285 196.324 12.8516 196.752 12.9688C197.18 13.0801 197.522 13.1885 197.78 13.2939C198.038 13.4053 198.267 13.5225 198.466 13.6455C198.671 13.7686 198.847 13.9004 198.993 14.041C199.292 14.3281 199.521 14.6709 199.679 15.0693C199.837 15.4619 199.916 15.916 199.916 16.4316ZM205.659 16.8359L204.56 20H201.967L206.485 7.61621H209.544L214.044 20H211.477L210.379 16.8359H205.659ZM208.014 9.52344C207.956 9.75781 207.874 10.0391 207.768 10.3672C207.663 10.6953 207.587 10.9268 207.54 11.0615L206.239 14.8848H209.798L208.462 10.9824C208.38 10.7422 208.304 10.499 208.234 10.2529C208.164 10.0068 208.09 9.76367 208.014 9.52344Z" fill="#1B3231"/>
<path d="M140.02 35.6172C139.723 35.6172 139.427 35.6901 139.13 35.8359C138.833 35.9766 138.565 36.1641 138.325 36.3984C138.091 36.6328 137.898 36.8984 137.747 37.1953C137.596 37.487 137.52 37.7839 137.52 38.0859C137.52 38.1693 137.528 38.2552 137.544 38.3438C137.559 38.4271 137.591 38.5052 137.637 38.5781C137.69 38.651 137.762 38.7109 137.856 38.7578C137.95 38.8047 138.075 38.8281 138.231 38.8281C138.533 38.8281 138.825 38.7578 139.106 38.6172C139.393 38.4714 139.648 38.2812 139.872 38.0469C140.096 37.8125 140.276 37.5495 140.411 37.2578C140.546 36.9609 140.614 36.6641 140.614 36.3672C140.614 36.2891 140.606 36.2057 140.591 36.1172C140.58 36.0286 140.554 35.9479 140.512 35.875C140.471 35.8021 140.411 35.7422 140.333 35.6953C140.255 35.6432 140.151 35.6172 140.02 35.6172ZM140.677 38.7656C140.234 39.2969 139.762 39.6875 139.262 39.9375C138.768 40.1823 138.231 40.3047 137.653 40.3047C137.335 40.3047 137.067 40.2578 136.848 40.1641C136.63 40.0755 136.453 39.9531 136.317 39.7969C136.182 39.6406 136.083 39.4583 136.02 39.25C135.963 39.0417 135.934 38.8203 135.934 38.5859C135.934 38.3203 135.968 38.0469 136.036 37.7656C136.104 37.4792 136.192 37.2031 136.302 36.9375C136.374 36.7656 136.434 36.6224 136.481 36.5078C136.528 36.3932 136.567 36.2969 136.598 36.2188C136.63 36.1354 136.656 36.0651 136.677 36.0078C136.703 35.9453 136.729 35.8828 136.755 35.8203C136.781 35.7526 136.812 35.6771 136.848 35.5938C136.885 35.5052 136.934 35.3932 136.997 35.2578L139.278 30.1875C139.309 30.1198 139.354 30.0547 139.411 29.9922C139.473 29.9297 139.544 29.875 139.622 29.8281C139.7 29.776 139.783 29.737 139.872 29.7109C139.966 29.6797 140.059 29.6641 140.153 29.6641C140.393 29.6641 140.559 29.7109 140.653 29.8047C140.752 29.8984 140.802 30.013 140.802 30.1484C140.802 30.2526 140.776 30.3672 140.723 30.4922C140.671 30.612 140.614 30.724 140.552 30.8281C140.166 31.5677 139.802 32.3203 139.458 33.0859C139.114 33.8464 138.749 34.599 138.364 35.3438C138.531 35.2135 138.708 35.0885 138.895 34.9688C139.083 34.8438 139.278 34.7344 139.481 34.6406C139.684 34.5417 139.895 34.4635 140.114 34.4062C140.333 34.3438 140.557 34.3125 140.786 34.3125C140.947 34.3125 141.111 34.3438 141.278 34.4062C141.445 34.4688 141.596 34.5599 141.731 34.6797C141.872 34.7995 141.984 34.9479 142.067 35.125C142.156 35.2969 142.2 35.4974 142.2 35.7266C142.2 35.7786 142.184 35.8828 142.153 36.0391C142.122 36.1953 142.075 36.3724 142.012 36.5703C141.955 36.763 141.882 36.9635 141.794 37.1719C141.71 37.375 141.617 37.5547 141.512 37.7109C141.549 37.7682 141.596 37.8047 141.653 37.8203C141.71 37.8307 141.776 37.8359 141.848 37.8359C142.088 37.8359 142.325 37.8047 142.559 37.7422C142.799 37.6797 143.023 37.6042 143.231 37.5156C143.445 37.4219 143.64 37.3255 143.817 37.2266C143.994 37.1276 144.143 37.0417 144.262 36.9688C144.325 36.901 144.393 36.8672 144.466 36.8672C144.554 36.8672 144.63 36.9062 144.692 36.9844C144.76 37.0625 144.794 37.1641 144.794 37.2891C144.794 37.4089 144.768 37.5286 144.716 37.6484C144.669 37.763 144.58 37.8906 144.45 38.0312C144.216 38.1719 143.979 38.3047 143.739 38.4297C143.505 38.5547 143.265 38.6641 143.02 38.7578C142.776 38.8464 142.526 38.9193 142.27 38.9766C142.02 39.0286 141.765 39.0547 141.505 39.0547C141.338 39.0547 141.184 39.0312 141.044 38.9844C140.903 38.9375 140.781 38.8646 140.677 38.7656ZM148.695 35.0469C148.841 34.9323 148.964 34.8464 149.062 34.7891C149.167 34.7266 149.255 34.6823 149.328 34.6562C149.401 34.625 149.466 34.6068 149.523 34.6016C149.586 34.5964 149.648 34.5938 149.711 34.5938C149.82 34.5938 149.898 34.6354 149.945 34.7188C149.992 34.7969 150.016 34.8802 150.016 34.9688C150.016 35.0417 150.003 35.1094 149.977 35.1719L148.227 38.8203C148.477 38.6328 148.763 38.4505 149.086 38.2734C149.414 38.0911 149.727 37.9297 150.023 37.7891C150.326 37.6432 150.583 37.526 150.797 37.4375C151.016 37.349 151.141 37.3047 151.172 37.3047C151.302 37.3047 151.417 37.3542 151.516 37.4531C151.615 37.5521 151.664 37.6771 151.664 37.8281C151.664 37.9635 151.612 38.1068 151.508 38.2578C151.409 38.4089 151.232 38.5547 150.977 38.6953C150.612 38.8984 150.294 39.0729 150.023 39.2188C149.753 39.3594 149.513 39.487 149.305 39.6016C149.096 39.7161 148.911 39.8203 148.75 39.9141C148.589 40.0078 148.435 40.1042 148.289 40.2031C148.148 40.3021 148.008 40.4062 147.867 40.5156C147.732 40.6302 147.583 40.763 147.422 40.9141C147.302 41.2266 147.182 41.526 147.062 41.8125C146.948 42.099 146.841 42.3516 146.742 42.5703C146.648 42.7891 146.57 42.9661 146.508 43.1016C146.445 43.237 146.411 43.3099 146.406 43.3203C145.984 44.1953 145.521 44.6328 145.016 44.6328C144.807 44.6328 144.638 44.5625 144.508 44.4219C144.378 44.2865 144.312 44.1016 144.312 43.8672C144.312 43.6484 144.339 43.4297 144.391 43.2109C144.448 42.9974 144.544 42.7604 144.68 42.5C144.82 42.2396 145.003 41.9479 145.227 41.625C145.456 41.3073 145.742 40.9323 146.086 40.5L147.648 37.3359C146.867 38.263 146.159 38.9714 145.523 39.4609C144.888 39.9505 144.294 40.1953 143.742 40.1953C143.565 40.1953 143.414 40.1536 143.289 40.0703C143.164 39.9922 143.102 39.8594 143.102 39.6719C143.102 39.4115 143.164 39.1172 143.289 38.7891C143.362 38.612 143.435 38.4505 143.508 38.3047C143.581 38.1536 143.656 38.0052 143.734 37.8594C143.812 37.7083 143.893 37.5469 143.977 37.375C144.065 37.2031 144.159 37.0104 144.258 36.7969C144.362 36.5781 144.474 36.3281 144.594 36.0469C144.719 35.7604 144.857 35.4271 145.008 35.0469C145.112 34.8438 145.247 34.6979 145.414 34.6094C145.581 34.5156 145.742 34.4688 145.898 34.4688C146.06 34.4688 146.195 34.5078 146.305 34.5859C146.419 34.6589 146.477 34.7578 146.477 34.8828C146.477 34.9453 146.466 35 146.445 35.0469L145.016 38.0234C144.943 38.1745 144.906 38.2943 144.906 38.3828C144.906 38.4609 144.937 38.5 145 38.5C145.057 38.5 145.13 38.4714 145.219 38.4141C145.307 38.3568 145.391 38.2917 145.469 38.2188L148.695 35.0469ZM163.928 33.5547C164.011 33.5547 164.092 33.5651 164.17 33.5859C164.248 33.6068 164.319 33.6354 164.381 33.6719C164.444 33.7083 164.493 33.7526 164.53 33.8047C164.566 33.8516 164.584 33.901 164.584 33.9531C164.584 34.0365 164.532 34.1224 164.428 34.2109C164.324 34.2943 164.144 34.3724 163.889 34.4453C163.634 34.5182 163.293 34.5781 162.866 34.625C162.444 34.6719 161.91 34.6953 161.264 34.6953C160.915 34.6953 160.569 34.7448 160.225 34.8438C159.881 34.9375 159.574 35.0781 159.303 35.2656C159.032 35.4531 158.811 35.6823 158.639 35.9531C158.472 36.224 158.389 36.5339 158.389 36.8828C158.389 37.1641 158.428 37.4323 158.506 37.6875C158.59 37.9427 158.712 38.1667 158.873 38.3594C159.04 38.5521 159.246 38.7057 159.491 38.8203C159.741 38.9349 160.035 38.9922 160.373 38.9922C161.056 38.9922 161.623 38.9531 162.077 38.875C162.53 38.7917 162.907 38.6901 163.209 38.5703C163.517 38.4453 163.767 38.3125 163.959 38.1719C164.157 38.0312 164.34 37.901 164.506 37.7812C164.678 37.6562 164.853 37.5547 165.03 37.4766C165.212 37.3932 165.439 37.3516 165.709 37.3516C165.928 37.3516 166.1 37.4062 166.225 37.5156C166.35 37.6198 166.412 37.7708 166.412 37.9688C166.412 38.1042 166.34 38.2552 166.194 38.4219C166.053 38.5885 165.85 38.7604 165.584 38.9375C165.324 39.1094 165.009 39.276 164.639 39.4375C164.269 39.599 163.858 39.7448 163.405 39.875C162.952 40 162.465 40.1016 161.944 40.1797C161.423 40.2578 160.881 40.2969 160.319 40.2969C159.803 40.2969 159.319 40.2266 158.866 40.0859C158.412 39.9505 158.017 39.7448 157.678 39.4688C157.34 39.1927 157.071 38.849 156.873 38.4375C156.681 38.0208 156.584 37.5339 156.584 36.9766C156.584 36.4974 156.694 36.0625 156.912 35.6719C157.131 35.276 157.428 34.9297 157.803 34.6328C158.183 34.3359 158.623 34.0911 159.123 33.8984C159.629 33.7057 160.165 33.5729 160.733 33.5C160.295 33.1719 159.988 32.8516 159.811 32.5391C159.634 32.2214 159.545 31.9089 159.545 31.6016C159.545 31.2995 159.621 31.0208 159.772 30.7656C159.923 30.5052 160.129 30.2682 160.389 30.0547C160.655 29.8411 160.962 29.6536 161.311 29.4922C161.66 29.3255 162.035 29.1875 162.436 29.0781C162.837 28.9635 163.251 28.8776 163.678 28.8203C164.11 28.7578 164.535 28.7266 164.952 28.7266C165.379 28.7266 165.782 28.7708 166.162 28.8594C166.548 28.9479 166.892 29.0859 167.194 29.2734C167.496 29.4609 167.743 29.6979 167.936 29.9844C168.129 30.2708 168.246 30.6094 168.287 31C168.287 31.1094 168.261 31.2214 168.209 31.3359C168.157 31.4505 168.077 31.5573 167.967 31.6562C167.863 31.75 167.733 31.8281 167.577 31.8906C167.426 31.9479 167.248 31.9766 167.045 31.9766C166.936 31.9766 166.847 31.9635 166.78 31.9375C166.717 31.9115 166.668 31.875 166.631 31.8281C166.6 31.7812 166.579 31.7266 166.569 31.6641C166.564 31.5964 166.561 31.5234 166.561 31.4453C166.561 31.2005 166.532 30.9896 166.475 30.8125C166.418 30.6354 166.321 30.4922 166.186 30.3828C166.056 30.2682 165.884 30.1849 165.67 30.1328C165.457 30.0755 165.191 30.0469 164.873 30.0469C164.493 30.0469 164.097 30.0885 163.686 30.1719C163.274 30.25 162.897 30.3672 162.553 30.5234C162.209 30.6745 161.926 30.8568 161.702 31.0703C161.483 31.2839 161.373 31.5234 161.373 31.7891C161.373 32.1016 161.444 32.3698 161.584 32.5938C161.73 32.8177 161.92 33.0026 162.155 33.1484C162.394 33.2891 162.668 33.3932 162.975 33.4609C163.282 33.5234 163.6 33.5547 163.928 33.5547ZM167.47 37.7422C167.413 37.862 167.356 38.0026 167.298 38.1641C167.246 38.3203 167.22 38.4609 167.22 38.5859C167.22 38.6641 167.236 38.7266 167.267 38.7734C167.298 38.8203 167.358 38.8438 167.447 38.8438C167.556 38.8438 167.692 38.8125 167.853 38.75C168.02 38.6823 168.197 38.5964 168.384 38.4922C168.577 38.3828 168.775 38.2604 168.978 38.125C169.186 37.9844 169.392 37.8411 169.595 37.6953C169.798 37.5443 169.991 37.3958 170.173 37.25C170.361 37.099 170.528 36.9609 170.673 36.8359C170.715 36.7995 170.765 36.7734 170.822 36.7578C170.879 36.7422 170.929 36.7344 170.97 36.7344C171.074 36.7344 171.16 36.7708 171.228 36.8438C171.296 36.9167 171.33 37.013 171.33 37.1328C171.33 37.2422 171.293 37.3646 171.22 37.5C171.147 37.6354 171.02 37.7682 170.837 37.8984C170.504 38.2057 170.168 38.4974 169.83 38.7734C169.491 39.0495 169.153 39.2943 168.814 39.5078C168.481 39.7161 168.147 39.8828 167.814 40.0078C167.486 40.1328 167.166 40.1953 166.853 40.1953C166.64 40.1953 166.46 40.1667 166.314 40.1094C166.173 40.0521 166.059 39.974 165.97 39.875C165.887 39.776 165.827 39.6589 165.791 39.5234C165.754 39.388 165.736 39.2448 165.736 39.0938C165.736 38.8385 165.772 38.5781 165.845 38.3125C165.923 38.0417 166.015 37.7943 166.119 37.5703C166.301 37.1641 166.486 36.7604 166.673 36.3594C166.861 35.9583 167.033 35.5911 167.189 35.2578L169.556 30.2188C169.65 30.0156 169.775 29.8724 169.931 29.7891C170.093 29.7057 170.254 29.6641 170.416 29.6641C170.577 29.6641 170.723 29.7083 170.853 29.7969C170.989 29.8854 171.056 30.0286 171.056 30.2266C171.056 30.3203 171.033 30.4193 170.986 30.5234C170.944 30.6276 170.89 30.7396 170.822 30.8594C170.692 31.1042 170.535 31.4036 170.353 31.7578C170.176 32.112 169.983 32.4974 169.775 32.9141C169.572 33.3307 169.361 33.7656 169.142 34.2188C168.929 34.6667 168.718 35.1042 168.509 35.5312C168.306 35.9583 168.114 36.3646 167.931 36.75C167.754 37.1302 167.601 37.4609 167.47 37.7422ZM172.966 33.2422C172.966 33.1224 172.986 33 173.028 32.875C173.075 32.7448 173.143 32.6276 173.231 32.5234C173.32 32.4193 173.429 32.3333 173.559 32.2656C173.695 32.1979 173.854 32.1641 174.036 32.1641C174.338 32.1641 174.549 32.224 174.669 32.3438C174.789 32.4583 174.848 32.6042 174.848 32.7812C174.848 32.8802 174.828 32.9896 174.786 33.1094C174.749 33.2292 174.692 33.3411 174.614 33.4453C174.536 33.5443 174.434 33.6276 174.309 33.6953C174.184 33.763 174.036 33.7969 173.864 33.7969C173.541 33.7969 173.315 33.7474 173.184 33.6484C173.054 33.5443 172.981 33.4089 172.966 33.2422ZM172.106 35C172.195 34.8542 172.296 34.75 172.411 34.6875C172.526 34.625 172.643 34.5938 172.762 34.5938C172.96 34.5938 173.13 34.6589 173.27 34.7891C173.416 34.9141 173.489 35.0755 173.489 35.2734C173.484 35.3203 173.476 35.3672 173.466 35.4141C173.46 35.4609 173.445 35.5078 173.419 35.5547C173.346 35.6901 173.286 35.8047 173.239 35.8984C173.192 35.9922 173.148 36.0807 173.106 36.1641C173.07 36.2422 173.033 36.3203 172.997 36.3984C172.96 36.4766 172.916 36.5703 172.864 36.6797C172.802 36.8099 172.731 36.9531 172.653 37.1094C172.575 37.2604 172.499 37.4167 172.427 37.5781C172.359 37.7396 172.299 37.8984 172.247 38.0547C172.2 38.2109 172.177 38.3542 172.177 38.4844C172.177 38.625 172.21 38.7188 172.278 38.7656C172.351 38.8073 172.453 38.8281 172.583 38.8281C172.729 38.8281 172.88 38.7969 173.036 38.7344C173.197 38.6719 173.359 38.5911 173.52 38.4922C173.682 38.3932 173.841 38.2812 173.997 38.1562C174.153 38.026 174.299 37.8958 174.434 37.7656C174.575 37.6354 174.703 37.5104 174.817 37.3906C174.937 37.2708 175.036 37.1641 175.114 37.0703C175.218 36.9714 175.322 36.9219 175.427 36.9219C175.52 36.9219 175.596 36.9635 175.653 37.0469C175.716 37.1302 175.747 37.237 175.747 37.3672C175.747 37.487 175.716 37.6146 175.653 37.75C175.596 37.8854 175.499 38.013 175.364 38.1328C175.098 38.4036 174.828 38.6641 174.552 38.9141C174.276 39.1589 173.992 39.3776 173.7 39.5703C173.414 39.7578 173.124 39.9089 172.833 40.0234C172.541 40.138 172.247 40.1953 171.95 40.1953C171.528 40.1953 171.195 40.0885 170.95 39.875C170.71 39.6562 170.591 39.3177 170.591 38.8594C170.591 38.6198 170.624 38.3854 170.692 38.1562C170.76 37.9271 170.841 37.7057 170.934 37.4922C171.028 37.2734 171.127 37.0651 171.231 36.8672C171.335 36.6641 171.424 36.4714 171.497 36.2891C171.523 36.2214 171.567 36.1172 171.63 35.9766C171.697 35.8359 171.768 35.6927 171.841 35.5469C171.924 35.375 172.012 35.1927 172.106 35ZM177.875 35.6016C178.193 35.7682 178.477 35.9583 178.727 36.1719C178.977 36.3854 179.187 36.612 179.359 36.8516C179.536 37.0859 179.669 37.3255 179.758 37.5703C179.852 37.8151 179.898 38.0547 179.898 38.2891C179.898 38.5859 179.812 38.8542 179.641 39.0938C179.474 39.3281 179.253 39.5286 178.977 39.6953C178.706 39.8568 178.393 39.9792 178.039 40.0625C177.69 40.151 177.336 40.1953 176.977 40.1953C176.706 40.1953 176.443 40.1641 176.187 40.1016C175.932 40.0443 175.698 39.9531 175.484 39.8281C175.276 39.7031 175.096 39.5443 174.945 39.3516C174.794 39.1536 174.687 38.9193 174.625 38.6484C174.615 38.6068 174.609 38.5729 174.609 38.5469C174.609 38.4062 174.659 38.2865 174.758 38.1875C174.857 38.0833 174.966 38.0312 175.086 38.0312C175.143 38.0312 175.206 38.0417 175.273 38.0625C175.346 38.0833 175.401 38.1302 175.437 38.2031C175.505 38.3281 175.599 38.4401 175.719 38.5391C175.844 38.638 175.982 38.724 176.133 38.7969C176.284 38.8646 176.443 38.9193 176.609 38.9609C176.781 38.9974 176.948 39.0156 177.109 39.0156C177.276 39.0156 177.435 39 177.586 38.9688C177.742 38.9375 177.878 38.888 177.992 38.8203C178.112 38.7526 178.206 38.6667 178.273 38.5625C178.341 38.4583 178.375 38.3307 178.375 38.1797C178.375 37.9141 178.315 37.6693 178.195 37.4453C178.076 37.2214 177.919 37.0156 177.727 36.8281C177.539 36.6354 177.323 36.4583 177.078 36.2969C176.839 36.1302 176.599 35.9714 176.359 35.8203C176.333 35.8047 176.294 35.7604 176.242 35.6875C176.19 35.6094 176.164 35.5312 176.164 35.4531C176.164 35.3906 176.18 35.3411 176.211 35.3047C176.294 35.1953 176.391 35.0833 176.5 34.9688C176.609 34.8542 176.727 34.75 176.852 34.6562C176.977 34.5573 177.112 34.4792 177.258 34.4219C177.404 34.3594 177.555 34.3281 177.711 34.3281C177.826 34.3281 177.932 34.3438 178.031 34.375C178.13 34.4062 178.214 34.4479 178.281 34.5C178.349 34.5469 178.401 34.6016 178.437 34.6641C178.479 34.7214 178.5 34.776 178.5 34.8281C178.5 34.901 178.482 34.9714 178.445 35.0391C178.409 35.1068 178.359 35.1719 178.297 35.2344C178.24 35.2969 178.172 35.3594 178.094 35.4219C178.021 35.4844 177.948 35.5443 177.875 35.6016ZM184.3 35.7344C184.055 35.7344 183.818 35.7969 183.589 35.9219C183.36 36.0469 183.157 36.2109 182.98 36.4141C182.803 36.6172 182.662 36.8464 182.558 37.1016C182.454 37.3516 182.402 37.6042 182.402 37.8594C182.402 37.9635 182.407 38.0729 182.417 38.1875C182.433 38.2969 182.464 38.3984 182.511 38.4922C182.558 38.5859 182.623 38.6641 182.706 38.7266C182.795 38.7891 182.912 38.8203 183.058 38.8203C183.172 38.8203 183.305 38.7708 183.456 38.6719C183.612 38.5677 183.771 38.4375 183.933 38.2812C184.099 38.1198 184.261 37.9453 184.417 37.7578C184.573 37.5651 184.714 37.3776 184.839 37.1953C184.964 37.013 185.066 36.849 185.144 36.7031C185.222 36.5573 185.261 36.4505 185.261 36.3828C185.261 36.2839 185.227 36.1953 185.159 36.1172C185.092 36.0339 185.008 35.9635 184.909 35.9062C184.81 35.849 184.704 35.8073 184.589 35.7812C184.48 35.75 184.383 35.7344 184.3 35.7344ZM189.714 37.75C189.62 37.8385 189.495 37.9609 189.339 38.1172C189.183 38.2734 189.003 38.4427 188.8 38.625C188.602 38.8073 188.389 38.9922 188.159 39.1797C187.935 39.362 187.704 39.5286 187.464 39.6797C187.23 39.8307 186.998 39.9531 186.769 40.0469C186.54 40.1458 186.323 40.1953 186.12 40.1953C185.938 40.1953 185.782 40.1562 185.652 40.0781C185.521 40 185.412 39.8984 185.323 39.7734C185.24 39.6484 185.178 39.5078 185.136 39.3516C185.094 39.1901 185.073 39.026 185.073 38.8594C185.073 38.75 185.081 38.6432 185.097 38.5391C185.112 38.4297 185.139 38.3281 185.175 38.2344C185.014 38.4531 184.829 38.6797 184.62 38.9141C184.417 39.1432 184.196 39.3542 183.956 39.5469C183.722 39.7344 183.474 39.888 183.214 40.0078C182.959 40.1328 182.698 40.1953 182.433 40.1953C182.297 40.1953 182.139 40.1667 181.956 40.1094C181.779 40.0573 181.61 39.9688 181.448 39.8438C181.287 39.7188 181.152 39.5573 181.042 39.3594C180.933 39.1615 180.878 38.9193 180.878 38.6328C180.878 38.4193 180.909 38.1641 180.972 37.8672C181.04 37.5703 181.139 37.263 181.269 36.9453C181.404 36.6224 181.573 36.3047 181.777 35.9922C181.985 35.6797 182.23 35.401 182.511 35.1562C182.792 34.9062 183.112 34.7057 183.472 34.5547C183.831 34.3984 184.232 34.3203 184.675 34.3203C184.904 34.3203 185.105 34.349 185.277 34.4062C185.448 34.4635 185.594 34.526 185.714 34.5938C185.849 34.6771 185.969 34.7682 186.073 34.8672C186.162 34.8203 186.253 34.776 186.347 34.7344C186.425 34.6979 186.506 34.6667 186.589 34.6406C186.678 34.6094 186.753 34.5938 186.816 34.5938C187.014 34.5938 187.175 34.6484 187.3 34.7578C187.425 34.8672 187.487 34.987 187.487 35.1172C187.487 35.1536 187.485 35.1823 187.48 35.2031C187.454 35.3021 187.412 35.4271 187.355 35.5781C187.303 35.7292 187.243 35.8984 187.175 36.0859C187.107 36.2682 187.037 36.4609 186.964 36.6641C186.896 36.862 186.834 37.0573 186.777 37.25C186.719 37.4427 186.672 37.625 186.636 37.7969C186.599 37.9635 186.581 38.1068 186.581 38.2266C186.581 38.3828 186.607 38.513 186.659 38.6172C186.711 38.7161 186.8 38.7656 186.925 38.7656C187.003 38.7656 187.094 38.7422 187.198 38.6953C187.308 38.6432 187.425 38.5755 187.55 38.4922C187.675 38.4089 187.803 38.3151 187.933 38.2109C188.068 38.1016 188.198 37.9922 188.323 37.8828C188.615 37.6224 188.925 37.3255 189.253 36.9922C189.336 36.9245 189.417 36.8906 189.495 36.8906C189.599 36.8906 189.685 36.9427 189.753 37.0469C189.826 37.1458 189.862 37.2578 189.862 37.3828C189.862 37.5286 189.813 37.651 189.714 37.75ZM193.623 35.6172C193.327 35.6172 193.03 35.6901 192.733 35.8359C192.436 35.9766 192.168 36.1641 191.928 36.3984C191.694 36.6328 191.501 36.8984 191.35 37.1953C191.199 37.487 191.123 37.7839 191.123 38.0859C191.123 38.1693 191.131 38.2552 191.147 38.3438C191.162 38.4271 191.194 38.5052 191.241 38.5781C191.293 38.651 191.366 38.7109 191.459 38.7578C191.553 38.8047 191.678 38.8281 191.834 38.8281C192.136 38.8281 192.428 38.7578 192.709 38.6172C192.996 38.4714 193.251 38.2812 193.475 38.0469C193.699 37.8125 193.879 37.5495 194.014 37.2578C194.149 36.9609 194.217 36.6641 194.217 36.3672C194.217 36.2891 194.209 36.2057 194.194 36.1172C194.183 36.0286 194.157 35.9479 194.116 35.875C194.074 35.8021 194.014 35.7422 193.936 35.6953C193.858 35.6432 193.754 35.6172 193.623 35.6172ZM194.28 38.7656C193.837 39.2969 193.366 39.6875 192.866 39.9375C192.371 40.1823 191.834 40.3047 191.256 40.3047C190.939 40.3047 190.67 40.2578 190.452 40.1641C190.233 40.0755 190.056 39.9531 189.92 39.7969C189.785 39.6406 189.686 39.4583 189.623 39.25C189.566 39.0417 189.537 38.8203 189.537 38.5859C189.537 38.3203 189.571 38.0469 189.639 37.7656C189.707 37.4792 189.795 37.2031 189.905 36.9375C189.978 36.7656 190.037 36.6224 190.084 36.5078C190.131 36.3932 190.17 36.2969 190.202 36.2188C190.233 36.1354 190.259 36.0651 190.28 36.0078C190.306 35.9453 190.332 35.8828 190.358 35.8203C190.384 35.7526 190.415 35.6771 190.452 35.5938C190.488 35.5052 190.537 35.3932 190.6 35.2578L192.881 30.1875C192.912 30.1198 192.957 30.0547 193.014 29.9922C193.077 29.9297 193.147 29.875 193.225 29.8281C193.303 29.776 193.386 29.737 193.475 29.7109C193.569 29.6797 193.662 29.6641 193.756 29.6641C193.996 29.6641 194.162 29.7109 194.256 29.8047C194.355 29.8984 194.405 30.013 194.405 30.1484C194.405 30.2526 194.379 30.3672 194.327 30.4922C194.274 30.612 194.217 30.724 194.155 30.8281C193.769 31.5677 193.405 32.3203 193.061 33.0859C192.717 33.8464 192.353 34.599 191.967 35.3438C192.134 35.2135 192.311 35.0885 192.498 34.9688C192.686 34.8438 192.881 34.7344 193.084 34.6406C193.287 34.5417 193.498 34.4635 193.717 34.4062C193.936 34.3438 194.16 34.3125 194.389 34.3125C194.551 34.3125 194.715 34.3438 194.881 34.4062C195.048 34.4688 195.199 34.5599 195.334 34.6797C195.475 34.7995 195.587 34.9479 195.67 35.125C195.759 35.2969 195.803 35.4974 195.803 35.7266C195.803 35.7786 195.787 35.8828 195.756 36.0391C195.725 36.1953 195.678 36.3724 195.616 36.5703C195.558 36.763 195.485 36.9635 195.397 37.1719C195.314 37.375 195.22 37.5547 195.116 37.7109C195.152 37.7682 195.199 37.8047 195.256 37.8203C195.314 37.8307 195.379 37.8359 195.452 37.8359C195.691 37.8359 195.928 37.8047 196.162 37.7422C196.402 37.6797 196.626 37.6042 196.834 37.5156C197.048 37.4219 197.243 37.3255 197.42 37.2266C197.597 37.1276 197.746 37.0417 197.866 36.9688C197.928 36.901 197.996 36.8672 198.069 36.8672C198.157 36.8672 198.233 36.9062 198.295 36.9844C198.363 37.0625 198.397 37.1641 198.397 37.2891C198.397 37.4089 198.371 37.5286 198.319 37.6484C198.272 37.763 198.183 37.8906 198.053 38.0312C197.819 38.1719 197.582 38.3047 197.342 38.4297C197.108 38.5547 196.868 38.6641 196.623 38.7578C196.379 38.8464 196.129 38.9193 195.873 38.9766C195.623 39.0286 195.368 39.0547 195.108 39.0547C194.941 39.0547 194.787 39.0312 194.647 38.9844C194.506 38.9375 194.384 38.8646 194.28 38.7656ZM200.806 35.3906C200.78 35.3854 200.757 35.3828 200.736 35.3828C200.715 35.3828 200.692 35.3828 200.666 35.3828C200.468 35.3828 200.283 35.4219 200.111 35.5C199.939 35.5781 199.78 35.6823 199.634 35.8125C199.494 35.9375 199.366 36.0807 199.252 36.2422C199.142 36.4036 199.043 36.5651 198.955 36.7266C198.866 36.8828 198.791 37.0339 198.728 37.1797C198.671 37.3255 198.627 37.4479 198.595 37.5469C198.778 37.4531 198.965 37.3464 199.158 37.2266C199.356 37.1068 199.541 36.9922 199.712 36.8828C199.884 36.7734 200.033 36.6745 200.158 36.5859C200.288 36.4974 200.379 36.4375 200.431 36.4062C200.666 36.2604 200.827 36.125 200.916 36C201.004 35.8698 201.048 35.7578 201.048 35.6641C201.048 35.5859 201.022 35.5234 200.97 35.4766C200.923 35.4297 200.869 35.401 200.806 35.3906ZM201.087 34.3125C201.52 34.3125 201.843 34.4167 202.056 34.625C202.27 34.8333 202.377 35.1224 202.377 35.4922C202.377 35.7109 202.319 35.9401 202.205 36.1797C202.09 36.4193 201.892 36.6641 201.611 36.9141C201.33 37.1589 200.952 37.4115 200.478 37.6719C200.009 37.9271 199.421 38.1849 198.712 38.4453C198.739 38.5964 198.819 38.7161 198.955 38.8047C199.09 38.888 199.27 38.9297 199.494 38.9297C199.733 38.9297 199.989 38.8958 200.259 38.8281C200.535 38.7552 200.806 38.6641 201.072 38.5547C201.343 38.4453 201.606 38.3281 201.861 38.2031C202.116 38.0729 202.345 37.9505 202.548 37.8359C202.757 37.7214 202.929 37.6224 203.064 37.5391C203.205 37.4557 203.298 37.4036 203.345 37.3828C203.392 37.3516 203.434 37.3333 203.47 37.3281C203.512 37.3229 203.548 37.3203 203.58 37.3203C203.642 37.3203 203.694 37.3359 203.736 37.3672C203.778 37.3932 203.811 37.4271 203.837 37.4688C203.869 37.5052 203.89 37.5469 203.9 37.5938C203.91 37.6354 203.916 37.6719 203.916 37.7031C203.916 37.75 203.91 37.8073 203.9 37.875C203.89 37.9375 203.851 38.0104 203.783 38.0938C203.757 38.1198 203.668 38.1901 203.517 38.3047C203.371 38.4193 203.181 38.5547 202.947 38.7109C202.712 38.8672 202.439 39.0339 202.127 39.2109C201.819 39.3828 201.491 39.5417 201.142 39.6875C200.798 39.8333 200.439 39.9531 200.064 40.0469C199.689 40.1458 199.319 40.1953 198.955 40.1953C198.642 40.1953 198.364 40.1354 198.119 40.0156C197.879 39.8958 197.673 39.7344 197.502 39.5312C197.335 39.3281 197.207 39.0938 197.119 38.8281C197.03 38.5625 196.986 38.2839 196.986 37.9922C196.986 37.7682 197.03 37.5234 197.119 37.2578C197.207 36.987 197.335 36.7161 197.502 36.4453C197.668 36.1745 197.871 35.9115 198.111 35.6562C198.356 35.3958 198.629 35.1667 198.931 34.9688C199.233 34.7708 199.564 34.612 199.923 34.4922C200.288 34.3724 200.676 34.3125 201.087 34.3125ZM206.208 35.6562C206.015 36.0312 205.833 36.3984 205.661 36.7578C205.489 37.112 205.328 37.4401 205.177 37.7422C205.114 37.8672 205.052 38.013 204.989 38.1797C204.932 38.3411 204.903 38.4844 204.903 38.6094C204.903 38.6823 204.919 38.7396 204.95 38.7812C204.986 38.8229 205.044 38.8438 205.122 38.8438C205.231 38.8438 205.369 38.8125 205.536 38.75C205.703 38.6823 205.882 38.5964 206.075 38.4922C206.268 38.3828 206.471 38.2604 206.684 38.125C206.898 37.9844 207.106 37.8411 207.309 37.6953C207.518 37.5443 207.716 37.3958 207.903 37.25C208.091 37.099 208.257 36.9609 208.403 36.8359C208.486 36.7786 208.565 36.75 208.637 36.75C208.726 36.75 208.799 36.7891 208.856 36.8672C208.914 36.9453 208.942 37.0443 208.942 37.1641C208.942 37.2839 208.914 37.4062 208.856 37.5312C208.799 37.6562 208.695 37.7786 208.544 37.8984C208.205 38.2057 207.861 38.4974 207.512 38.7734C207.169 39.0495 206.825 39.2943 206.481 39.5078C206.143 39.7161 205.807 39.8828 205.473 40.0078C205.14 40.1328 204.817 40.1953 204.505 40.1953C204.296 40.1953 204.122 40.1667 203.981 40.1094C203.841 40.0573 203.726 39.9844 203.637 39.8906C203.554 39.7917 203.494 39.6797 203.458 39.5547C203.421 39.4245 203.403 39.2865 203.403 39.1406C203.403 38.8802 203.447 38.6094 203.536 38.3281C203.624 38.0469 203.723 37.7943 203.833 37.5703C203.989 37.2474 204.143 36.9271 204.294 36.6094C204.45 36.2917 204.601 35.987 204.747 35.6953H204.411C204.119 35.6953 203.919 35.6484 203.809 35.5547C203.7 35.4609 203.645 35.3542 203.645 35.2344C203.645 35.1823 203.661 35.1198 203.692 35.0469C203.729 34.9688 203.778 34.8984 203.841 34.8359C203.908 34.7682 203.989 34.7109 204.083 34.6641C204.177 34.6172 204.283 34.5938 204.403 34.5938H205.247L206.895 31.3203C206.999 31.1224 207.127 30.9818 207.278 30.8984C207.434 30.8099 207.596 30.7656 207.762 30.7656C207.919 30.7656 208.062 30.8073 208.192 30.8906C208.322 30.974 208.387 31.112 208.387 31.3047C208.387 31.4036 208.364 31.5052 208.317 31.6094C208.276 31.7083 208.218 31.8255 208.145 31.9609C208.098 32.0495 208.041 32.1562 207.973 32.2812C207.906 32.401 207.833 32.5312 207.755 32.6719C207.682 32.8073 207.604 32.9505 207.52 33.1016C207.442 33.2526 207.364 33.3984 207.286 33.5391C207.109 33.8724 206.921 34.224 206.723 34.5938H209.27C209.395 34.5938 209.51 34.6016 209.614 34.6172C209.718 34.6276 209.807 34.6536 209.88 34.6953C209.958 34.7318 210.018 34.7839 210.059 34.8516C210.101 34.9193 210.122 35.0104 210.122 35.125C210.122 35.1823 210.111 35.2396 210.091 35.2969C210.075 35.3542 210.041 35.4062 209.989 35.4531C209.942 35.5 209.874 35.5391 209.786 35.5703C209.703 35.6016 209.593 35.6224 209.458 35.6328L206.208 35.6562ZM208.055 38.7656C208.18 38.5 208.323 38.2057 208.484 37.8828C208.646 37.5547 208.807 37.2318 208.969 36.9141C209.135 36.5911 209.292 36.2865 209.438 36C209.583 35.7083 209.706 35.4609 209.805 35.2578L212.383 30.1875C212.414 30.1198 212.461 30.0547 212.523 29.9922C212.591 29.9297 212.667 29.875 212.75 29.8281C212.833 29.776 212.922 29.737 213.016 29.7109C213.109 29.6797 213.203 29.6641 213.297 29.6641C213.526 29.6641 213.685 29.7083 213.773 29.7969C213.862 29.8802 213.906 29.9844 213.906 30.1094C213.906 30.224 213.878 30.3464 213.82 30.4766C213.763 30.6016 213.698 30.7188 213.625 30.8281C213.396 31.2188 213.174 31.6146 212.961 32.0156C212.753 32.4115 212.542 32.8125 212.328 33.2188C212.12 33.6198 211.909 34.0208 211.695 34.4219C211.482 34.8177 211.258 35.2109 211.023 35.6016C211.169 35.4609 211.323 35.3151 211.484 35.1641C211.651 35.013 211.831 34.875 212.023 34.75C212.216 34.625 212.427 34.5234 212.656 34.4453C212.885 34.362 213.141 34.3203 213.422 34.3203C213.589 34.3203 213.747 34.3359 213.898 34.3672C214.049 34.3984 214.182 34.4505 214.297 34.5234C214.411 34.5911 214.503 34.6875 214.57 34.8125C214.638 34.9323 214.672 35.0807 214.672 35.2578C214.672 35.4922 214.635 35.7083 214.562 35.9062C214.495 36.099 214.406 36.2839 214.297 36.4609C214.188 36.6328 214.068 36.7995 213.938 36.9609C213.807 37.1172 213.682 37.2786 213.562 37.4453C213.448 37.6068 213.346 37.776 213.258 37.9531C213.174 38.1302 213.122 38.3229 213.102 38.5312C213.102 38.5417 213.099 38.5521 213.094 38.5625C213.094 38.5729 213.094 38.5833 213.094 38.5938C213.094 38.6979 213.128 38.763 213.195 38.7891C213.268 38.8151 213.359 38.8281 213.469 38.8281C213.609 38.8281 213.76 38.8021 213.922 38.75C214.083 38.6927 214.245 38.6198 214.406 38.5312C214.573 38.4375 214.737 38.3333 214.898 38.2188C215.065 38.1042 215.221 37.987 215.367 37.8672C215.518 37.7474 215.656 37.6328 215.781 37.5234C215.906 37.4089 216.013 37.3099 216.102 37.2266C216.148 37.1849 216.198 37.1536 216.25 37.1328C216.302 37.112 216.352 37.1016 216.398 37.1016C216.492 37.1016 216.57 37.138 216.633 37.2109C216.701 37.2786 216.734 37.3724 216.734 37.4922C216.734 37.6016 216.695 37.7266 216.617 37.8672C216.544 38.0078 216.417 38.1484 216.234 38.2891C215.948 38.5391 215.656 38.7786 215.359 39.0078C215.062 39.237 214.763 39.4401 214.461 39.6172C214.159 39.7943 213.857 39.9349 213.555 40.0391C213.258 40.1432 212.966 40.1953 212.68 40.1953C212.31 40.1953 212.013 40.112 211.789 39.9453C211.565 39.7734 211.453 39.5052 211.453 39.1406C211.453 38.875 211.497 38.625 211.586 38.3906C211.68 38.151 211.792 37.9219 211.922 37.7031C212.057 37.4792 212.201 37.2656 212.352 37.0625C212.503 36.8542 212.635 36.651 212.75 36.4531C212.812 36.3646 212.859 36.2839 212.891 36.2109C212.927 36.1328 212.945 36.0495 212.945 35.9609C212.945 35.8828 212.924 35.8203 212.883 35.7734C212.841 35.7214 212.776 35.6953 212.688 35.6953C212.38 35.6953 212.096 35.7708 211.836 35.9219C211.576 36.0729 211.336 36.2656 211.117 36.5C210.898 36.7344 210.695 36.9922 210.508 37.2734C210.32 37.5495 210.146 37.8151 209.984 38.0703C209.911 38.1849 209.836 38.3177 209.758 38.4688C209.685 38.6146 209.607 38.7656 209.523 38.9219C209.445 39.0781 209.362 39.2344 209.273 39.3906C209.185 39.5417 209.091 39.6771 208.992 39.7969C208.898 39.9167 208.797 40.013 208.688 40.0859C208.583 40.1589 208.474 40.1953 208.359 40.1953C208.177 40.1953 208.036 40.1406 207.938 40.0312C207.839 39.9271 207.789 39.7943 207.789 39.6328C207.789 39.513 207.81 39.388 207.852 39.2578C207.893 39.1224 207.961 38.9583 208.055 38.7656Z" fill="#1B3231"/>
</svg>
